<svg id="Слой_1" data-name="Слой 1" xmlns="http://www.w3.org/2000/svg" viewBox="0 0 922.67 279.69"><defs><style>.cls-1{fill:#49b1e5;}.cls-2{fill:#2e312f;}.cls-3{fill:#342f29;}.cls-4{fill:#2b3221;}.cls-5{fill:#8cbf44;}.cls-6{fill:#78b02b;}.cls-7{fill:#9fc656;}.cls-8{fill:#7bb02f;}.cls-9{fill:#a57c51;}.cls-10{fill:#c49c70;}.cls-11{fill:#8cbf45;}.cls-12{fill:#77ab31;}.cls-13{fill:#8cbf43;}.cls-14{fill:#7aaf2d;}.cls-15{fill:#78ae2e;}.cls-16{fill:#2f3230;}.cls-17{fill:#79b12c;}.cls-18{fill:#c49a6b;}.cls-19{fill:#c49a6a;}.cls-20{fill:#d7ad80;}.cls-21{fill:#d6ac80;}.cls-22{fill:#d7ac7f;}.cls-23{fill:#e3e4e3;}.cls-24{fill:#fff;}.cls-25{fill:#333;}.cls-26{fill:#d9d9d9;}</style></defs><title>123</title><g id="_Группа_" data-name="&lt;Группа&gt;"><path id="_Составной_контур_" data-name="&lt;Составной контур&gt;" d="M130.63,212.2H116l-6.06-22.38q-1.51,0-3.36.17c-1,.11-2.16.2-3.45.25s-2.55.08-3.79.08a57.74,57.74,0,0,0-8.41,1q-4.38.84-9.08,2.19H82q-15.14,4-19.68,18.34a95.19,95.19,0,0,0-4.79,27.51,85.78,85.78,0,0,0,3.79,28,24.15,24.15,0,0,0,7.57,11.69,35,35,0,0,0,11.94,6.39A58.56,58.56,0,0,0,95.22,288q7.65.42,14.72.42,1.68-5.38,3.53-11.94T117,264h14q-1.35,9.76-2.78,18.25T125.42,300a83,83,0,0,1-9.76,2.52,143.68,143.68,0,0,1-14.22,2.19,153.91,153.91,0,0,1-16.49.84,110.56,110.56,0,0,1-16.48-1.18,56.71,56.71,0,0,1-14.22-4,22.2,22.2,0,0,1-9.76-7.65v.17a35.08,35.08,0,0,1-8.24-11.36,63.93,63.93,0,0,1-4.79-15.06,99.53,99.53,0,0,1-1.77-17.16,138.44,138.44,0,0,1,.76-17.5,114.69,114.69,0,0,1,2.94-16.4,82.86,82.86,0,0,1,4.71-13.71q7.9-17.32,23.38-23.55a62.09,62.09,0,0,1,16.82-4.46,141.68,141.68,0,0,1,17.16-1.09,112.16,112.16,0,0,0,12.11-.59q5.38-.59,9.08-1.26a59.27,59.27,0,0,0,7.4-1.85Z" transform="translate(-24.33 -142.22)"/><path id="_Составной_контур_2" data-name="&lt;Составной контур&gt;" d="M158.72,172.16q7.73.5,14.89.84l14.22.67q7.07.34,14.21.76t14.89.93l21.36,111.87q1.85.5,4.71,1.51t5.22,1.68v11.44H207.85q0-3.87.08-6.14t.08-5.47l11.1-3.2-6.22-27.92L210,238.78l.17-7.74-9.25-37.68H188.33l-10.26,38.18q0,1.51-.08,3.87t-.08,3.87l-2.86,20,.17-.34-6.56,27.92,5,1.68q3,1,5.72,1.85v11.44H137.53V290.25l9.93-2.86,25.06-102.95-13.12.67Z" transform="translate(-24.33 -142.22)"/><path id="_Составной_контур_3" data-name="&lt;Составной контур&gt;" d="M348,186.63a41.51,41.51,0,0,1,10.77,13.63,64.14,64.14,0,0,1,5.72,17.5,77.65,77.65,0,0,1,.93,19.51,99.48,99.48,0,0,1-3.53,19.85,92,92,0,0,1-7.49,18.5A68.26,68.26,0,0,1,343.18,291a50.6,50.6,0,0,1-14.64,10.51,42.68,42.68,0,0,1-17.75,4,64.05,64.05,0,0,1-23.72-4.12A52.35,52.35,0,0,1,269.25,290a53,53,0,0,1-11.61-17.24,68.76,68.76,0,0,1-5.13-21.53A90.57,90.57,0,0,1,254,226.92a110.74,110.74,0,0,1,8.33-25.48q7.9-17.16,23.38-23.55a69.06,69.06,0,0,1,14-4.46,57.56,57.56,0,0,1,14.64-1.26Q333,173.68,348,186.63Zm-38.69,6.73a17.84,17.84,0,0,0-11.27,4,34.53,34.53,0,0,0-8.66,10.35,59.4,59.4,0,0,0-5.72,14.64A88.94,88.94,0,0,0,281,239.11a76.14,76.14,0,0,0,.84,16.82,49.25,49.25,0,0,0,4.63,14.63,29,29,0,0,0,8.66,10.35,21.55,21.55,0,0,0,13.12,4,20,20,0,0,0,12.45-4,31.52,31.52,0,0,0,8.66-10.35,51.29,51.29,0,0,0,5-14.63,88.31,88.31,0,0,0,1.6-16.82,80.08,80.08,0,0,0-1.77-16.82A55,55,0,0,0,329,207.66a33.12,33.12,0,0,0-8.41-10.35A17.73,17.73,0,0,0,309.28,193.36Z" transform="translate(-24.33 -142.22)"/><path id="_Составной_контур_4" data-name="&lt;Составной контур&gt;" d="M394.91,305.06q-4.38-1-9-1.85a66.18,66.18,0,0,0-9.67-1q0-3.53.08-6t.08-5.3l10.43-1.85v-96.9q-1.85-.34-4.79-.93t-5.64-1.09V173.84l38.69,3.2a103.27,103.27,0,0,1,13.46-3.11,74.38,74.38,0,0,1,11.1-.93q10.09,0,15.64,4.54A37.69,37.69,0,0,1,464,188.31a39,39,0,0,1,4.54,13.37,28.69,28.69,0,0,1-1.18,13.46,22.76,22.76,0,0,1-8.24,11V226a56,56,0,0,1,10.09,14.72q4.2,8.67,4.21,22.29a39.15,39.15,0,0,1-8.75,25.07,48.87,48.87,0,0,1-9.92,9.25,63.29,63.29,0,0,1-12.79,6.9,77.74,77.74,0,0,1-11.44,2.86,72.48,72.48,0,0,1-12.28,1q-3.37,0-7.07-.25a57.4,57.4,0,0,1-7.74-1.09Zm15.81-15.48,17.5-.84q9.75,0,18.67-8.07,6.9-6.9,6.9-19.52a63.66,63.66,0,0,0-.5-7.91,10.18,10.18,0,0,0-4-6.22,25.13,25.13,0,0,0-7.57-3.7,48.66,48.66,0,0,0-9.25-1.85,89,89,0,0,0-9.08-.5q-1.85,0-4,.08t-4,.25l-4.54.34Zm.34-59q1.34.17,3,.34,1.34.17,3.11.25t3.62.08a70.5,70.5,0,0,0,9-.67,34.82,34.82,0,0,0,9.67-2.69,21.77,21.77,0,0,0,7.74-5.72q3.19-3.7,3.2-9.93v-7.07a16.06,16.06,0,0,0-1.68-6.9,13.54,13.54,0,0,0-9.08-7.15,25.56,25.56,0,0,0-6.22-.76,27.07,27.07,0,0,0-6.56.84,32.47,32.47,0,0,0-6.31,2.27,31.89,31.89,0,0,0-5.38,3.28,20,20,0,0,0-4,3.87Z" transform="translate(-24.33 -142.22)"/><path id="_Составной_контур_5" data-name="&lt;Составной контур&gt;" d="M579.78,263.51l-6.06,38.36H482.21V290.25l10.77-3V190.5l-5-.84q-2.95-.51-5.8-1.18V172.16l38.35,3.36h53.33q1.68,10.43,3.2,19.43t3,19.1h-14.3l-7.23-24.73-41.38,4,.17,38.35h35.16q.17,4,.34,7.32t.34,6.81H517.37L517.2,284l41.55,4.21q1.68-5.38,3.53-12.2t3.53-12.53Z" transform="translate(-24.33 -142.22)"/><path id="_Составной_контур_6" data-name="&lt;Составной контур&gt;" d="M586.34,290.25l10.6-3V190.67l-10.6-2V172.33q9.59.67,17.83,1.51t17.33,1.51l-.17,49.46h42.22V175.53h24.56v111.7l10.43,3v11.61H653.12V290.25l10.43-3V242.31H621.33l.17,44.91,10.6,3v11.61H586.34Z" transform="translate(-24.33 -142.22)"/><path id="_Составной_контур_7" data-name="&lt;Составной контур&gt;" d="M798.46,186.63a41.51,41.51,0,0,1,10.77,13.63,64,64,0,0,1,5.72,17.5,77.58,77.58,0,0,1,.93,19.51,99.58,99.58,0,0,1-3.53,19.85,92,92,0,0,1-7.49,18.5A68.22,68.22,0,0,1,793.67,291,50.61,50.61,0,0,1,779,301.52a42.69,42.69,0,0,1-17.75,4,64.05,64.05,0,0,1-23.72-4.12A52.35,52.35,0,0,1,719.74,290a53,53,0,0,1-11.61-17.24A68.76,68.76,0,0,1,703,251.23a90.63,90.63,0,0,1,1.51-24.31,110.82,110.82,0,0,1,8.33-25.48q7.9-17.16,23.38-23.55a69,69,0,0,1,14-4.46,57.55,57.55,0,0,1,14.64-1.26Q783.49,173.68,798.46,186.63Zm-38.69,6.73a17.83,17.83,0,0,0-11.27,4,34.49,34.49,0,0,0-8.66,10.35,59.46,59.46,0,0,0-5.72,14.64,88.94,88.94,0,0,0-2.61,16.82,76.14,76.14,0,0,0,.84,16.82A49.21,49.21,0,0,0,737,270.57a29,29,0,0,0,8.66,10.35,21.54,21.54,0,0,0,13.12,4,20,20,0,0,0,12.45-4,31.51,31.51,0,0,0,8.66-10.35,51.24,51.24,0,0,0,5-14.63,88.31,88.31,0,0,0,1.6-16.82,80,80,0,0,0-1.77-16.82,55.06,55.06,0,0,0-5.21-14.64,33.13,33.13,0,0,0-8.41-10.35A17.73,17.73,0,0,0,759.77,193.36Z" transform="translate(-24.33 -142.22)"/><path id="_Составной_контур_8" data-name="&lt;Составной контур&gt;" d="M820,290.25l10.43-3V247.61q0-15.89.08-26.66t.08-17.66V190.67l-10.6-2V172.33q9.42.67,17.58,1.51t17.24,1.68v53l13.29-.17Q873,211,876.6,198.49t6.48-23q8.58-.67,15.73-1.43l15.39-1.6q0,4.88-.08,8.33t-.08,7.82l-9.59,1.85-14.64,44.58,15,52.31,9.93,2.86v11.61q-9.08.17-16,.34-3,0-5.89.08l-5.13.17q-2.27.09-5,.08L868.1,245.84h-13l-.34,41.38,10.6,3v11.61H820Z" transform="translate(-24.33 -142.22)"/></g><g id="_Группа_2" data-name="&lt;Группа&gt;"><path d="M190.14,364.09v-3.36l-.38-3.89-.38-3.13-.46-4.28-.76-3.44-1.15-2.6-1.15-3.59-3.36-3.13-4.13-.54-4.28,1.22-2.6,2.9-1.83-4,1.76-1.91,3.13-1.68,3.9-.23,3.28.46,3.67,1.37,2.52,2.22,1.6,3.51.76,3.29.92,2.75.69,4,.84,4.13.23,4.2.15,4.2.23,3.28-.15,3.82.23,3.9-.38,4.2-.46,3.66-.69,3.29-.69,3.36-1.68,3.9-1.91,2.83-2.29,1.91-3.59,1.15-2.67-.15L176,396.32l-2-2.22-2.37-3.51-1.3-3.21-.46-3.21-.46-3.29-.23-3.28.15-3.59.38-3.67.69-3.21,1.07-3.67,1.61-3.06,2.9-2.06,3.06-.84,3.28.84,3.06,1.38Zm-.08,3.06-3.28-2.45L184.49,363l-3.06-1.68-2.9-.69-2.9,1.45-1.76,2.37-.61,3.36-.15,3.28L173,374.4l-.15,3.28-.08,3.36.15,3.28.92,3.21,1.22,2.6.92,2.29,1.76,1.22,2.83,1,2.6.46,2.52-1.91,1.45-2.83,1.07-3.36,1-4,.38-3.59.54-3.44.08-3.44Z" transform="translate(-24.33 -142.22)"/><path d="M203.35,377.92l-.23,4.35.31,3.29.61,3.82,2.67,2.44H210l2.52-.38,2-2.06,2.06.92-1.76,3-3,1.53h-3.28l-3.28-.31-2.44-2.37-.54-3.29-.61-3.28-.61-3.9V367.3l.31-3.59.31-3.29.92-3.28,2.67-2.06,3.28-.92,3.28.31,2.67,2.67,1.15,3.28v6.87l-.54,3.59-.61,3.28-2.37,2.37-3.06,1.53h-3.28Zm.08-2.52h3.28l3.28-1.22,2.14-2.67.53-3.29.31-3.89v-3.59l-1.15-3.28-3.28-.84-3.13.92-.92,2.67-1,2.68-.38,3.89v3.82Z" transform="translate(-24.33 -142.22)"/><path d="M224.19,353.32l3.44.23,3.59.84h6.11l7.18.23v4l-3.74-1.38-4.35-.61-.61,4.74.31,3.05v3.06l.15,3.06-.23,3.36-.31,3.06.31,3.67-.31,3.05v6.72l-.38,4.66-1.76.84-1.83-1.22.92-4.89v-3.06l.31-3.06v-3.36l.23-3.06.31-3.67.23-3.05-.15-3.06v-6.72l-.23-3.52-3.06-1.07h-3.36l-2.44,1.83Z" transform="translate(-24.33 -142.22)"/><path d="M271.62,362.18l-.92,3.21-3.13-.69.61-2.9L266.5,359l-1.76-1.07-3.13-1.07-3.06.31-2.29,1.15-.92,2.29-.76,3-.31,3.51.31,3.67v6.11l.31,3.36.31,3.59.84,5,2.29,2.6,2.75,1.53h3.06l3.06-.61,1.6-1.3,1.91,1-1.76,2.45-3.06.92-3.06.31-3.51-.23-2.9-1.3L254.66,392l-1.3-2.75-.61-3.05-.31-3.36-.31-3.36V366.92l.31-3.06v-3.05l.61-3.67,2.44-2.45,3.06-.31h3.36l3.36.08,3.67,2.06,1.83,2.75Z" transform="translate(-24.33 -142.22)"/><path d="M281.7,350.42l1.6,3.36v9.17L283,366v3.05l-.31,3.59,3-5.42,1.68-1.38,2.9-2.6,1.53-2.75,1.83-2.45,2.75-1.53,2.37,4-3.36.84-3.59,3.44-2.44,2.14-2.14,2.75-1.91,3.06,2.67,2,2,2.9,1.22,3.06,1.53,2.75,1.3,3.51.84,2.91.61,3.05,2,2.6-2.67,2-1.91-2.9-.23-3.9L291.17,388l-1.22-3.05-.92-3.06-1.53-3.36-1.83-2.06-2.75-1-.84,2.9-.15,3.44-.54,2.83.31,3.05.31,3.06.31,5.12-3.06-.23V383.11l.31-3.36.31-3.05.31-3.67.31-3.06V356.83l-1.22-5.35Z" transform="translate(-24.33 -142.22)"/><path d="M307.43,360.73l1-3L310,355l2.75-1.53,3.67-.31,3.06.31,2.44,1.84,1.83,2.44,1.22,3.06v23.52l-.31,3.06v3.06l1,2.67,1.3,3.36-2.9.46-1.3-4-.84-3.13L320,392.58l-1.83,2.75-3.06.92h-3.06l-2.21-1-2.14-2.75-.69-3.29-.69-3.21.31-3.51.69-3.13,1.68-2.67,2.75-2.45,2.83-.46,3.44-.31,3.51-.76.46-1.91.38-2.29v-3.05l-.31-3.06-.46-3.44-1.53-2.29-2.52-1.37-4.74.61L311,359.2l-.69,2.14Zm10.08,15.43-3.13.69-2.29,1.38-1.83,2.45-.61,3.05v3.36l.61,3.06,1.83,2.44,3,.38,3.44-1.6,1.53-2.75,1.6-3.36.38-3.59v-3l-.15-2.9Z" transform="translate(-24.33 -142.22)"/><path d="M354.4,354.77l-.31,4.2-.61,3.06-.31,3.06v6.42l-.31,3.67V388l-.31,3.36v3.06l-2.75,1.53V383.42l.38-3.59-2.44-.84-3.51,4.51-1.38,3.43-.38,3.67L340.8,394l-2.14,2L337,397.47l-2.44-1.83L337,393.8l1.68-2,1.07-2.9,1.22-3.05.61-3.06,1.83-2.44,2.44-2.75-2.44-2.44-1.83-2.45-1.22-3.06v-3.36l.31-3.06.31-3.06.61-3.05,1.83-2.45,3.36-.61h6.42ZM350.5,356l-1.91-.08-3.06.61-2.06,2.14-.38,2.75v6.11l.92,3.06,1.38,2.67,2.6,2.52L351,377l.31-3.06v-6.11l.31-3.06.31-3.05.31-3.06.38-1.91Z" transform="translate(-24.33 -142.22)"/><path d="M396.78,362.18l-.92,3.21-3.13-.69.61-2.9L391.66,359l-1.76-1.07-3.13-1.07-3.06.31-2.29,1.15-.92,2.29-.76,3-.31,3.51.31,3.67v6.11l.31,3.36.31,3.59.84,5,2.29,2.6,2.75,1.53h3.06l3.06-.61L394,391l1.91,1-1.76,2.45-3.06.92-3.06.31-3.51-.23-2.9-1.3L379.82,392l-1.3-2.75-.61-3.05-.31-3.36-.31-3.36V366.92l.31-3.06v-3.05l.61-3.67,2.44-2.45,3.06-.31h3.36l3.36.08,3.67,2.06,1.83,2.75Z" transform="translate(-24.33 -142.22)"/><path d="M404.41,353.32l3.44.23,3.59.84h6.11l7.18.23v4L421,357.29l-4.35-.61-.61,4.74.31,3.05v3.06l.15,3.06-.23,3.36-.31,3.06.31,3.67-.31,3.05v6.72l-.38,4.66-1.76.84L412,394.72l.92-4.89v-3.06l.31-3.06v-3.36l.23-3.06.31-3.67.23-3.05-.15-3.06v-6.72l-.23-3.52-3.06-1.07h-3.36l-2.44,1.83Z" transform="translate(-24.33 -142.22)"/><path d="M433.58,352.56l1.53,2.75.92,3.05.92,3.06.61,3.36.61,3.06.61,3.36.31,3.05.61,3.06v3.36l.31,3.05.61,3.67.69,3,1.15,4.13,1.22-4.66.31-3.06.61-3.06.31-3.05.61-3.06.61-3.06.31-3.05.31-3.06-.31-3.13,1.07-3,1.15-3.06-1.3-2.44,1.83-2.45,1.22,3.06v3.06l-.61,3.05-.61,3.06-.61,3.05-.92,3.36-.31,3.06-.31,3.05v3.06l-.31,3.06-.31,3.05-.61,3.06-.92,3.06-.92,3.36-.61,3.36-.61,3.06-.69,3.05-.61,3.06-.61,3.36L439.61,417l-.61,3.06-3.67,1.53-.92-1.91,3.13-3.28.61-3.06.61-3.05.61-3.67.92-3.36.61-3.05.31-3.36-.92-3.06-.61-3.05-.92-3.06-.31-3.05-.61-3.06-.31-3.36-.92-3.67L436,371.5l-.31-3.36-.92-3.67-.61-3.05L433,357.75l-.61-3.67Z" transform="translate(-24.33 -142.22)"/><path d="M478.94,364.09v-3.36l-.38-3.89-.38-3.13-.46-4.28L477,346l-1.15-2.6-1.15-3.59-3.36-3.13-4.13-.54-4.28,1.22-2.6,2.9-1.83-4,1.76-1.91,3.13-1.68,3.9-.23,3.28.46,3.67,1.37,2.52,2.22,1.6,3.51.76,3.29.92,2.75.69,4,.84,4.13.23,4.2.15,4.2.23,3.28-.15,3.82.23,3.9-.38,4.2-.46,3.66-.69,3.29-.69,3.36-1.68,3.9-1.91,2.83-2.29,1.91-3.59,1.15-2.67-.15-3.06-1.38-2-2.22-2.37-3.51-1.3-3.21-.46-3.21-.46-3.29-.23-3.28.15-3.59.38-3.67.69-3.21,1.07-3.67,1.6-3.06,2.9-2.06,3.06-.84,3.28.84,3.06,1.38Zm-.08,3.06-3.28-2.45L473.29,363l-3.06-1.68-2.9-.69-2.9,1.45-1.76,2.37-.61,3.36-.15,3.28-.15,3.29-.15,3.28-.08,3.36.15,3.28.92,3.21,1.22,2.6.92,2.29,1.76,1.22,2.83,1,2.6.46,2.52-1.91,1.45-2.83L477,387l1-4,.38-3.59.54-3.44.08-3.44Z" transform="translate(-24.33 -142.22)"/><path d="M493.83,354.47l.08,2.6.23,4V371.2l-.31,3.28v10.77l.61,3.82,1.38,4.58,3.44,1.22,2.21-1.22,3.74-3,1.38-3.89.76-4.28.23-3.21v-20l3-1.83v18.33l-.46,4-.08,3.44.69,4,1.07,3.05,1.15,3.29.92,3.28-3.06,1-.69-4.2-.61-3.36-.92-5.19-.38,5.19-1.53,3.9L504,396.25l-3,1.83-3.28.31-3.28-.31-2.06-2.75-.92-2.37V379.52l.31-3.29.31-3.51v-7.18l-.31-3.28-.61-3.59-1.3-2.83Z" transform="translate(-24.33 -142.22)"/><path d="M541.33,354.77,541,359l-.61,3.06-.31,3.06v6.42l-.31,3.67V388l-.31,3.36v3.06l-2.75,1.53V383.42l.38-3.59-2.44-.84-3.51,4.51-1.38,3.43-.38,3.67L527.73,394l-2.14,2-1.68,1.53-2.44-1.83,2.44-1.84,1.68-2,1.07-2.9,1.22-3.05.61-3.06,1.83-2.44,2.44-2.75-2.44-2.44-1.83-2.45-1.22-3.06v-3.36l.31-3.06.31-3.06.61-3.05,1.83-2.45,3.36-.61h6.42Zm-3.9,1.22-1.91-.08-3.06.61-2.06,2.14-.38,2.75v6.11l.92,3.06,1.38,2.67,2.6,2.52L538,377l.31-3.06v-6.11l.31-3.06.31-3.05.31-3.06.38-1.91Z" transform="translate(-24.33 -142.22)"/><path d="M564.84,421.91V401.75l.31-3.67.31-3.36.31-3.06V381l-.61-4v-3.36l-.31-3.05V356.83l-.61-3.06.92-.84,1.91,1.68,4,1.3,3.06.31,2.37,1.07.76,2.14.61,3.05.61,3.06.31,3.06.31,3.05.31,3.06v3.06l-.31,2.75-.31,2.29-.92,2.83-2.44,2.14-2.83,1.68-4.51,1.45-.08,4-.38,3.21-.23,4,.23,3-.31,3.74-.31,3.06v6.11l.61,3.06ZM572,387.08l2.75-1.83,1.83-2.45.31-3.06V367.53l-.31-3.06-.31-3.05-1.53-2.75L572,357.14l-4.89-.46.31,3.21.31,3.06v6.42l.31,3.06v16.19Z" transform="translate(-24.33 -142.22)"/><path d="M588.13,360.73l1-3,1.53-2.75,2.75-1.53,3.67-.31,3.06.31,2.44,1.84,1.83,2.44,1.22,3.06v23.52l-.31,3.06v3.06l1,2.67,1.3,3.36-2.9.46-1.3-4-.84-3.13-1.83,2.75-1.83,2.75-3.06.92h-3.06l-2.21-1-2.14-2.75-.69-3.29-.69-3.21.31-3.51.69-3.13,1.68-2.67,2.75-2.45,2.83-.46,3.44-.31,3.51-.76.46-1.91.38-2.29v-3.05l-.31-3.06-.46-3.44-1.53-2.29-2.52-1.37-4.74.61-1.83,3.28-.69,2.14Zm10.08,15.43-3.13.69-2.29,1.38L591,380.67l-.61,3.05v3.36l.61,3.06,1.83,2.44,3,.38,3.44-1.6,1.53-2.75,1.6-3.36.38-3.59v-3l-.15-2.9Z" transform="translate(-24.33 -142.22)"/><path d="M618.3,360l1.83-3.9,3.59-2,4.12-.15,3.36,1.07,1.3,3.29.69,3.36v3.51l-1.68,3.67-2.22,2.67,2.14,3.13.76,3.74.69,3.59v7.26l-1.37,3.59L629.45,395l-3.44.76-4.28-.31-4-1.07-2.44-2,1-1.76,2.29.76,3.36,1.07,4.12-.31,2.9-1.3,1.68-3.36V380l-1.3-4.28-2.67-3.44L623,372l.08-1.6,3.67-.38,2.6-2.44,1.6-3.28.31-3.9-2.29-3-3.59-.31-3.28,1.6-.92,3Z" transform="translate(-24.33 -142.22)"/><path d="M656.1,381l4.12,1,1.45,3.29v3.28l-.84,3.59-2.44,2.67-3.51,1.83h-4.51l-3.59-.61-3-1.53-2.06-2.68-.92-3.89V384.1l.31-3.59.61-3.89.61-4.81.84-3.59.92-3.51,2.06-3.28,2.67-2.45,3.59-1.45L656,356.3l3.28-.31,3.59.31,2.6,2.67.69,3v3.28l-.61,3.28-.92,3.29-2.06,3.28-2.06,2.52-2.37,1.91ZM643.5,383l3.9-.54,5.27-1.91,3.67-2.52,2.37-2.37,2.14-2.67.61-3.28,1-3.29.15-3.28-1.45-3-3.28-.92H654l-2.37,1.15-2.52,2.06L647,365.24l-.84,1.83-.76,3.44-.61,2.9-1.15,5.2Zm0,1.83v1.91l.31,3.28,2.06,2.68,3,1.45,3.28.61,3.06-.84,2.75-2.83.46-3.21-.54-3.28-3-1.45-3.36-.38-4.89,1.53Z" transform="translate(-24.33 -142.22)"/><path d="M677.78,354.47l.08,2.6.23,4V371.2l-.31,3.28v10.77l.61,3.82,1.38,4.58,3.44,1.22,2.21-1.22,3.74-3,1.38-3.89.76-4.28.23-3.21v-20l3-1.83v18.33l-.46,4-.08,3.44.69,4,1.07,3.05,1.14,3.29.92,3.28-3.06,1-.69-4.2-.61-3.36-.92-5.19-.38,5.19-1.53,3.9-2.67,2.06-3,1.83-3.28.31-3.28-.31-2.06-2.75-.92-2.37V379.52l.31-3.29.31-3.51v-7.18l-.31-3.28-.61-3.59-1.3-2.83Z" transform="translate(-24.33 -142.22)"/><path d="M705.42,353.32l3.44.23,3.59.84h6.11l7.18.23v4L722,357.29l-4.35-.61-.61,4.74.31,3.05v3.06l.15,3.06-.23,3.36L717,377l.31,3.67-.31,3.05v6.72l-.38,4.66-1.76.84L713,394.72l.92-4.89v-3.06l.31-3.06v-3.36l.23-3.06.31-3.67.23-3.05-.15-3.06v-6.72l-.23-3.52-3.05-1.07h-3.36l-2.45,1.83Z" transform="translate(-24.33 -142.22)"/><path d="M737.34,354.47l.08,2.6.23,4V371.2l-.31,3.28v10.77l.61,3.82,1.38,4.58,3.44,1.22,2.22-1.22,3.74-3,1.37-3.89.76-4.28.23-3.21v-20l3-1.83v18.33l-.46,4-.08,3.44.69,4,1.07,3.05,1.15,3.29.92,3.28-3.06,1-.69-4.2-.61-3.36-.92-5.19-.38,5.19-1.53,3.9-2.68,2.06-3,1.83-3.28.31-3.29-.31-2.06-2.75L735,393V379.52l.31-3.29.31-3.51v-7.18l-.31-3.28-.61-3.59-1.3-2.83Z" transform="translate(-24.33 -142.22)"/><path d="M784.85,354.77l-.31,4.2-.61,3.06-.31,3.06v6.42l-.31,3.67V388l-.31,3.36v3.06l-2.75,1.53V383.42l.38-3.59L778.2,379l-3.51,4.51-1.38,3.43-.38,3.67L771.25,394l-2.14,2-1.68,1.53L765,395.64l2.45-1.84,1.68-2,1.07-2.9,1.22-3.05.61-3.06,1.83-2.44,2.45-2.75-2.45-2.44L772,372.72l-1.22-3.06v-3.36l.31-3.06.31-3.06.61-3.05,1.83-2.45,3.36-.61h6.42ZM781,356l-1.91-.08-3.05.61-2.06,2.14-.38,2.75v6.11l.92,3.06,1.38,2.67,2.6,2.52,3.06,1.22.31-3.06v-6.11l.31-3.06.31-3.05.31-3.06.38-1.91Z" transform="translate(-24.33 -142.22)"/></g><path id="_Составной_контур_9" data-name="&lt;Составной контур&gt;" class="cls-1" d="M912.67,306.32c-20.54-4.35-84.89-.08-93.8.58-20.19,1.5-42.45,3.08-65.73,2.05s-87.64,3.08-121.87-.9-83.7-1.5-106.81-1.66-55.11-4.11-68.47-.07-58,4-69.06,3.23c-55.91-3.79-49.55,1.45-64.55.78s-66.65.17-76.92,2.93a44.62,44.62,0,0,1-6.85.94,12.91,12.91,0,0,0-.17-1.37c-.34-.45-.57-.2-.73.14a3,3,0,0,0-.17,1.31c-20.88,1.56-71.53.87-94.27-1.89-26.7-3.25-101.49-8.77-117.59.87C9.95,322.69,134.9,325,180.09,324.5c6.36-.08,13-.22,19.74-.37-.86,1-.71,1.58.64,2.31a44.46,44.46,0,0,0,10.33,3.65A152.88,152.88,0,0,0,229,333.33c4.16.53,8.34.81,12.51,1.2A140.79,140.79,0,0,0,259,335a155.87,155.87,0,0,0,16.26-1.34c4.34-.59,8.71-.92,13-1.54,4.53-.65,9.1-.94,13.65-1.4a35.2,35.2,0,0,1,3.75-.26c3.93,0,7.84-.6,11.75-.29l1.11.06q1.93.48,3.81,1c39.6,11,124.71-3.42,156.89-5.69s89-16.42,119.81-10.48,297.82,3.85,332.74,9.47S933.21,310.67,912.67,306.32Zm-679.89,21.9a4.28,4.28,0,0,0-2.42.81,7.29,7.29,0,0,1-8.19,0,13,13,0,0,1-3.39-3.35,6,6,0,0,1-1-2c6.47-.13,13-.23,19.57-.26,0,.26-.06.51-.1.77C236.78,327.2,235.8,328.14,232.78,328.22Zm47.72.78a3.58,3.58,0,0,1-3.09-3.53c0-.34,0-.68,0-1q6.83.44,13.43,1.12C288.37,329.12,283.56,329.4,280.49,329Z" transform="translate(-24.33 -142.22)"/><path id="_Контур_" data-name="&lt;Контур&gt;" class="cls-2" d="M294.42,288.45a34.93,34.93,0,0,1,1-11.39c1-3.7,1-3.76,4.65-3.46a82.61,82.61,0,0,0,18.73-.12c7.62-1.12,14.23-4.62,20.36-9.12a3.21,3.21,0,0,1,2.26-.71,20.83,20.83,0,0,0,5.06-.41c6.23-1.12,10-4.8,11.72-10.88a46,46,0,0,0-1-27.91c-5.22-15.24-14.88-26.73-29.62-33.59-9.81-4.56-20.13-5.43-30.72-3.61-6.55,1.12-12.83,3-18.42,6.75A35.61,35.61,0,0,0,263,217.23c-4,19.47,1.91,35.75,16.7,48.88a23.63,23.63,0,0,0,5.5,3.52,1.22,1.22,0,0,1,.83,1.54,47.72,47.72,0,0,0-.39,8.27c1-.12.79-.91.67-1.42a19.87,19.87,0,0,1-.19-3.28,17.43,17.43,0,0,0,.12,2.65c1.14-.39.61-1.37.75-2.12a29.66,29.66,0,0,1,.39-4.92,2.37,2.37,0,0,0-1.5-2.77,33.35,33.35,0,0,1-7.31-5,41.76,41.76,0,0,1-11.63-17A53.82,53.82,0,0,1,264,223.77a22.93,22.93,0,0,1,.7-5.46,34.34,34.34,0,0,1,4.88-12.69c3.76-6,9.24-10,15.63-12.79a54.59,54.59,0,0,1,17.45-4.2,52.07,52.07,0,0,1,14.43.84,57,57,0,0,1,8.12,2.3,44.67,44.67,0,0,1,14.17,8.7A55,55,0,0,1,357,233.71,39.31,39.31,0,0,1,356,252a15.21,15.21,0,0,1-1.09,2.53c-.41.71-.84,1.41-1.28,2.1a10.66,10.66,0,0,1-8.71,4.94,45.3,45.3,0,0,0-5.06.16c-3.58,2-7,4.25-10.66,6.16a33.73,33.73,0,0,1-16,4.2,4,4,0,0,0-.86.11,24,24,0,0,1-5.65.09,70.92,70.92,0,0,1-13.77-2,2.87,2.87,0,0,0-.71-.12c-.3,0-.63,0-.72.34s.11.46.29.63a6.49,6.49,0,0,0,1.44,1c2.38,1.28,2,1.12,1.09,3.25A32.23,32.23,0,0,0,292.86,287a1.91,1.91,0,0,0,.37,1.23A1.1,1.1,0,0,0,294.42,288.45Z" transform="translate(-24.33 -142.22)"/><path id="_Контур_2" data-name="&lt;Контур&gt;" class="cls-3" d="M286.32,277.48v-3c-.69,1.62.16,3.36-.67,4.94a1.22,1.22,0,0,0-.05.14c-.24.92.26,2.34-.5,2.68s-1.59-.85-2.41-1.33a51.58,51.58,0,0,0-19.83-6.27c-7.89-.93-15.8-1-23.54,1.08-12,3.26-21.14,10.46-28.11,20.6-.27.39-.44.81-1,1-1.77.78-1.84,1.07-.86,2.78.09.16.2.32.3.49-.53,1,.55,1.31.76,2,.19.33.43.56.85.42a.93.93,0,0,0,.54-.94c-.27-1.16-1.38-2-1.45-3.33.71,0,.88.46,1.08.85,2.77,5.28,7.54,7.26,13.09,7.52a144.78,144.78,0,0,0,17.14-.45,43.42,43.42,0,0,1,11.85,1,83.06,83.06,0,0,0,20.7,1.49c4.23-.2,8.31-1.42,12.38-2.54,3.41-.94,6.77-2.09,10.23-2.88a2.25,2.25,0,0,1,1.67-.09,7.14,7.14,0,0,1-2.66,1.45,83,83,0,0,1-13.26,3.31,4.63,4.63,0,0,0-2.47.69,3.36,3.36,0,0,0,3.36.78,11,11,0,0,1,3.37-.56,2.61,2.61,0,0,0,.75.17c.32-.14.68,0,1-.13-.15-.9.65-.72,1-.82a54.59,54.59,0,0,0,7.45-2.4,8.07,8.07,0,0,0,2.7-1.66c.69-.69.79-1.43-.14-1.88a2.15,2.15,0,0,1-1.17-1.68,43.82,43.82,0,0,0-3.46-9c-1.12-.8-.48-2-.61-3l0-.5-.91-.28c-.23.22-.25.5-.25.92a14.62,14.62,0,0,0-5-4.7,3.19,3.19,0,0,1-1.64-3.1C286.66,280,287,278.7,286.32,277.48Z" transform="translate(-24.33 -142.22)"/><path id="_Контур_3" data-name="&lt;Контур&gt;" class="cls-4" d="M288.65,309.41c-.3-.1-.55-.76-.91-.06a2.67,2.67,0,0,0,.69,1.72,53.56,53.56,0,0,1,4.95,7.81c.72,1.6.51,2.18-1.07,3.48-.46-4.33-3.69-6.85-6.11-9.9l-.09-.11c-.48-.6-1.33-1.18-1.28-1.85.06-.94,1.26-.49,1.86-.87a.79.79,0,0,0,.45-.52,4.72,4.72,0,0,0-2.89.23,8.61,8.61,0,0,1-4.1.09c-.63-.59-1.37-.35-2.07-.22a54.4,54.4,0,0,1-9,.9,63.13,63.13,0,0,1-10.11-.9c-4.65-.65-9.32-1.21-14-1.62-3.12-.27-6.17.47-9.26.7-5,.39-10,.9-15-.26a13.28,13.28,0,0,1-7.92-4.78,1.57,1.57,0,0,0-1.15-.8l-.53.66c0,1.74,1.41,2.39,2.26,3.24-5.68-1.15-8.73-5.13-9.59-12.77a11.41,11.41,0,0,0,5.51,8.53c.38.25.78.62,1.31.32,0-.75-1.09-.94-.93-1.78-.71.2-1.06-.34-1.46-.74a14.68,14.68,0,0,1-4.3-9.44,7,7,0,0,0-.21-1.36,19.52,19.52,0,0,0,.1,10.58,12.22,12.22,0,0,0,10.75,7.79,2.79,2.79,0,0,1,1.25.27,20.93,20.93,0,0,0,9.82,2.23c1.14,0,1,.37.61,1.17a17.61,17.61,0,0,1-4.89,5.87,15.61,15.61,0,0,0-3.74,3.8c-.82,3.39.8,6.52,4.56,8.81A7.43,7.43,0,0,0,231,329a1.58,1.58,0,0,1,1.32-.32c3.5.15,5-1.08,5.43-4.56a59.62,59.62,0,0,0,.19-7.25,14.29,14.29,0,0,1,.31-4.32,1,1,0,0,0,.42-.73c.07-1.76,1-2.26,2.71-2.4a29.85,29.85,0,0,1,6.93.36c4.83.71,9.63,1.66,14.51,2a54.62,54.62,0,0,0,11.15-.35c2.25-.3,2.48-.12,2.8,2.13.28,1.91.28,3.84.56,5.75,0,1.84-.45,3.65-.36,5.5.17,3.17,1.4,4.48,4.55,4.65,3.4.19,6.66-.23,9-3a22.26,22.26,0,0,1,3.69-4c1-.74,1-2,.81-3.21A56.7,56.7,0,0,0,288.65,309.41Z" transform="translate(-24.33 -142.22)"/><path id="_Контур_4" data-name="&lt;Контур&gt;" class="cls-2" d="M294.47,289a3.86,3.86,0,0,0-.37,2.23c.1.64.4.82,1,.74Z" transform="translate(-24.33 -142.22)"/><path id="_Контур_5" data-name="&lt;Контур&gt;" class="cls-5" d="M355.24,254.66a24.32,24.32,0,0,0,2.64-11.06c.59-15-4.39-28-14.07-39.24a45.92,45.92,0,0,0-17.41-12.55,8.36,8.36,0,0,0-1.11-.3c-1.08.29-.61.78-.11,1.16a12.24,12.24,0,0,0,2.32,1.19,39,39,0,0,1,11.82,8.05,2.9,2.9,0,0,1,.82,1.09c-4.64-3.17-8.91-6.56-13.93-8.78a105.21,105.21,0,0,0-15.59-5c1.63.22,3.28-.06,4.9.3a1.56,1.56,0,0,0,1.63-.31,43.24,43.24,0,0,0-13-1.06,55.27,55.27,0,0,0-16.87,3.44c-10.36,3.94-18,10.61-21.66,21.38a24.27,24.27,0,0,0-1.25,5.36.56.56,0,0,0-.09.41c0,.24.48.07.39.6-.72,4.19-.41,8.41-.24,12.62.05,1.35.27,2.7.41,4A39.81,39.81,0,0,0,270,251.16a35.8,35.8,0,0,0,13,12.88c6.92,4.23,14.57,6.3,22.41,7.73,2.32.42,4.71,1.2,7.16.68,6.66.22,12.7-1.82,18.41-5.06a94.21,94.21,0,0,0,8.94-5.43c.84-.64-.2-.77-.35-1.19a19.78,19.78,0,0,0,11.22-2.4,7.83,7.83,0,0,0,4-3.86S355,254.79,355.24,254.66Z" transform="translate(-24.33 -142.22)"/><path id="_Контур_6" data-name="&lt;Контур&gt;" class="cls-6" d="M312.5,272.45a86,86,0,0,1-10.15-1.73c-1.54-.38-3.1-.73-4.64-1.08a51.89,51.89,0,0,1-11-4.09A38.41,38.41,0,0,1,275,257.19a32.19,32.19,0,0,1-6.16-9.18,45.45,45.45,0,0,1-3.85-15.4,79.69,79.69,0,0,1,0-12.87c.06-.56.2-1.21-.58-1.48-.76,1.52-.67,3.21-.77,4.81-.94,14.64,2.41,27.86,13.16,38.51a34.57,34.57,0,0,0,9.06,6.46,1.66,1.66,0,0,1,1.11,2.13,42,42,0,0,0-.39,4.89,15.44,15.44,0,0,0,8.15.31c1.19-2.24,1.19-2.23-1-3.43a11.48,11.48,0,0,1-2-1.38c2.46.57,4.9,1.09,7.37,1.42a74.47,74.47,0,0,0,12.73.69A2.72,2.72,0,0,0,312.5,272.45Z" transform="translate(-24.33 -142.22)"/><path id="_Контур_7" data-name="&lt;Контур&gt;" class="cls-5" d="M294.73,275.37c-.55-.54-1.1.07-1.68,0-2.15-.18-4.31-.23-6.47-.33a11.91,11.91,0,0,1-.26,2.41q0,2.46-.08,4.92c0,.48-.06,1,.43,1.3,2.64,1.78,5.26,3.58,7.08,6.81l-.24-2.33c-.68-3.73,0-7.37.76-11C294.4,276.57,294.58,276,294.73,275.37Z" transform="translate(-24.33 -142.22)"/><path id="_Контур_8" data-name="&lt;Контур&gt;" class="cls-7" d="M317.17,189.15c-2.06-.14-4.13-.27-6.19-.45-.49,0-1.1-.25-1.24.33s.59.56.93.64c2.87.66,5.67,1.52,8.5,2.33a52.49,52.49,0,0,1,16.56,8.32,32.43,32.43,0,0,0,5.2,3.45c-.43-1.73-1.74-2.52-2.77-3.48a44.36,44.36,0,0,0-12.41-7.7c-.41-.18-1.34-.3-.46-1.09A31.47,31.47,0,0,0,317.17,189.15Z" transform="translate(-24.33 -142.22)"/><path id="_Контур_9" data-name="&lt;Контур&gt;" class="cls-8" d="M355.24,254.66c-.29,0-.42-.72-.87-.06-2.46,3.63-6.25,4.83-10.29,5.64a25.12,25.12,0,0,1-5.59.1c.07.75.64.86,1.1,1s.37.34.25.63c1.69,0,3.38.15,5.06,0,4.2-.32,7.54-2.13,9.53-6C354.67,255.51,355.22,255.25,355.24,254.66Z" transform="translate(-24.33 -142.22)"/><path id="_Контур_10" data-name="&lt;Контур&gt;" class="cls-9" d="M219,288.77a15.08,15.08,0,0,0-3.27,3.46c-1.06,1.32-2,2.76-3,4.08a1.77,1.77,0,0,0-.22,2.22,11.7,11.7,0,0,0,8.05,6.15,41.36,41.36,0,0,0,11.68.76c8.32-.37,16.62-.52,24.89,1.14a53.77,53.77,0,0,0,26.74-1c4.3-1.32,8.7-2.27,13.08-3.34.81-.2,1-.4.71-1.25-3.35-10.26-10.23-17.09-20.12-21.18a58.51,58.51,0,0,0-24.34-4.68c-11.25.34-21.72,3.16-30.65,10.41a15.7,15.7,0,0,0-3.51,3.22c.87.42,1.42-.2,1.87-.7a3.93,3.93,0,0,1,4.83-1.07,44.21,44.21,0,0,0,5,1.45c1,.25,1,.76.39,1.43-1,1.09-1.91,2.33-2.94,3.41a14.72,14.72,0,0,0-4,9.29c-.07.85-.41,1.17-1.19.95-2.65-.75-5.38-1.29-7.59-3.13a8.86,8.86,0,0,1-1.34-1.53,1.51,1.51,0,0,1,0-2c1.55-2.16,2.77-4.56,4.56-6.56C219.07,289.88,219.5,289.41,219,288.77Z" transform="translate(-24.33 -142.22)"/><path id="_Контур_11" data-name="&lt;Контур&gt;" class="cls-10" d="M211.66,302.44c3.06,4.88,8,6.2,13.21,6.67a59.43,59.43,0,0,0,13.63-.71,50.47,50.47,0,0,1,13.32.3c5.1.62,10.17,1.5,15.3,1.77a58.19,58.19,0,0,0,11-.82c.67-.09,1.34-.16,2-.23,4-.91,8-1.53,11.89-2.6a28.41,28.41,0,0,0,6-2.16c.57-.3,1.57-.62,1.35-1.28s-1.18-.31-1.81-.18c-3.56.75-7,1.87-10.49,2.94A59.49,59.49,0,0,1,265,308.83a125.41,125.41,0,0,1-12.94-1.8c-5.49-1-11-.71-16.51-.38-4.78.29-9.58.65-14.34-.36-4.37-.93-7.74-3.21-9.63-7.38-.29-.64-.67-1.18-1.41-.84s-.34,1.08-.08,1.6C210.57,300.61,211.13,301.51,211.66,302.44Z" transform="translate(-24.33 -142.22)"/><path id="_Контур_12" data-name="&lt;Контур&gt;" class="cls-11" d="M210.62,302.42c-4-1.95-6-5.36-6.85-9.64-.88,7,4.34,14,10.44,13.95a10,10,0,0,1-3.08-3.64Z" transform="translate(-24.33 -142.22)"/><path id="_Контур_13" data-name="&lt;Контур&gt;" class="cls-12" d="M288.67,310.83l-.92-1.48-.6-.25a4.85,4.85,0,0,1-2.22.54c-1.17.16-1,.57-.41,1.23s1,1.19,1.45,1.78C286.86,312,288.18,312.05,288.67,310.83Z" transform="translate(-24.33 -142.22)"/><path id="_Контур_14" data-name="&lt;Контур&gt;" class="cls-5" d="M226.91,311.76a23.27,23.27,0,0,1-6.8,7.63c-2.49,1.74-2.62,3.19-1,5.78s3.86,4.61,7.24,4.62a5.13,5.13,0,0,0,5.21-3.62c1.11-2.74,1.07-5.69,1.69-8.52.36-1.65.63-3.32.94-5,.21-.63.09-1.09-.66-1.06A54.1,54.1,0,0,0,226.91,311.76Z" transform="translate(-24.33 -142.22)"/><path id="_Контур_15" data-name="&lt;Контур&gt;" class="cls-5" d="M278.14,313.79a72.13,72.13,0,0,1-.29,9.56,5.71,5.71,0,0,0,.41,3,3.45,3.45,0,0,0,3.35,2.32,12.45,12.45,0,0,0,6-1.35c3.43-1.71,4.45-4,2.12-8.31a29.66,29.66,0,0,0-5.21-6.39C282.37,312.8,280.28,313.43,278.14,313.79Z" transform="translate(-24.33 -142.22)"/><path id="_Контур_16" data-name="&lt;Контур&gt;" class="cls-13" d="M237.15,317.54c.12-2.19.18-4.56.49-6.92,0-.36.64-1.06-.22-1.15-.67-.07-1.44,0-1.66,1-.48,2.27-1,4.53-1.59,6.77s-.48,4.81-1,7.17a7.73,7.73,0,0,1-.74,2c-.54,1-.22,1.29.78,1.34a3.82,3.82,0,0,0,3.87-3.41A31.26,31.26,0,0,0,237.15,317.54Z" transform="translate(-24.33 -142.22)"/><path id="_Контур_17" data-name="&lt;Контур&gt;" class="cls-5" d="M288.67,310.83c-.7.91-2.23.57-2.7,1.82,1,1.23,2,2.51,3.06,3.69,1.7,1.88,3,3.93,2.88,6.61,2.1-.8,2.77-2.22,1.91-4.08A49,49,0,0,0,288.67,310.83Z" transform="translate(-24.33 -142.22)"/><path id="_Контур_18" data-name="&lt;Контур&gt;" class="cls-14" d="M278.14,313.79a12.59,12.59,0,0,0,6.41-1.18l-.06-.13c-1.51-3-4.08-2.25-6.55-1.83-.46.08-.67.31-.51.81C277.68,312.22,277.9,313,278.14,313.79Z" transform="translate(-24.33 -142.22)"/><path id="_Контур_19" data-name="&lt;Контур&gt;" class="cls-15" d="M226.91,311.76c2.12.59,4.28.19,6.41.24.57,0,.91,0,.89.66.83-2.72.83-2.71-1.89-2.66a19.52,19.52,0,0,1-2.88,0C228,309.8,227.13,310.29,226.91,311.76Z" transform="translate(-24.33 -142.22)"/><path id="_Контур_20" data-name="&lt;Контур&gt;" class="cls-16" d="M340.45,222.07a38.92,38.92,0,0,0-5.09-11.5,35.33,35.33,0,0,0-13.58-12c-.48-.24-.95-.49-1.42-.74a9.94,9.94,0,0,0-3.49-1.6,33.86,33.86,0,0,0-25.1,1.13c-12.64,5.66-19.94,15.53-21.47,29.24A34.15,34.15,0,0,0,279.1,254,35.66,35.66,0,0,0,327,259.19a35.4,35.4,0,0,0,14.24-23.36,33.44,33.44,0,0,0-.11-11.71A5.1,5.1,0,0,0,340.45,222.07Z" transform="translate(-24.33 -142.22)"/><path id="_Контур_21" data-name="&lt;Контур&gt;" class="cls-17" d="M340.45,222.07a70,70,0,0,1,.85,7.63c.06,15.74-9.35,29.2-24.26,34.22a33.76,33.76,0,0,1-25.62-1.3c-11.27-5.19-18.18-14-20.41-26.15a33.92,33.92,0,0,1,5.61-26.15,34.82,34.82,0,0,1,24.87-15.23,34.07,34.07,0,0,1,17.24,2.17c.54.21,1.09.4,1.63.6.18-.37.13-.63-.3-.79-3.17-1.15-6.29-2.47-9.69-2.81a48.76,48.76,0,0,0-9.58,0,31.21,31.21,0,0,0-9.72,2.57,47.32,47.32,0,0,0-7.65,4.32,31.39,31.39,0,0,0-6.61,6.21,27.92,27.92,0,0,0-4.88,7.92c-.73,2-1.79,3.94-2.34,6.05a35.77,35.77,0,0,0-1.27,9.42,38.8,38.8,0,0,0,2.27,12.74,36.83,36.83,0,0,0,20.09,21.29,34.86,34.86,0,0,0,16.74,3,36.42,36.42,0,0,0,15.29-4.37,39.17,39.17,0,0,0,10-7.77,43.23,43.23,0,0,0,4.51-6.35,32.91,32.91,0,0,0,4.6-12.83,32.3,32.3,0,0,0-.56-13.64c-.11-.42-.19-.84-.28-1.28C340.59,221.5,340.75,222,340.45,222.07Z" transform="translate(-24.33 -142.22)"/><path id="_Контур_22" data-name="&lt;Контур&gt;" class="cls-18" d="M251.64,293.4a29,29,0,0,0-4.94-.82,73,73,0,0,1-10.71-3,1.72,1.72,0,0,0-2.25.61c-2.27,3.11-4.9,6-5.62,10a20.42,20.42,0,0,1-1.06,3.3c-.27.75,0,1,.72,1,3.38-.13,6.77-.05,10.15-.14a79.31,79.31,0,0,1,11.39,0c2.68.31,5.32.84,8,1.2a.85.85,0,0,0,1-.44c1.22-2.2,2.41-4.38,2.42-7,0-1.44.29-2.88.24-4.33,0-.67-.21-1-.95-.87-2.57.51-5.22,0-7.79.53.81,1,2,.68,3.08.9a10,10,0,0,0,3.17,0c1.28-.15,1.53.09,1.49,1.4a18.4,18.4,0,0,0-.17,2.55c0-1.65-1.12-2.46-2.43-3a17.1,17.1,0,0,0-4.58-1.22C252.34,293.92,251.81,294,251.64,293.4Z" transform="translate(-24.33 -142.22)"/><path id="_Контур_23" data-name="&lt;Контур&gt;" class="cls-19" d="M276.38,291.66c-4.16.54-8.36.5-12.54.85-.87.07-.83.55-.87,1.17-.11,1.73.35,3.4.18,5.18-.22,2.25-1.22,4.25-1.5,6.45-.1.78-.12,1.17.81,1.22,2.51.13,5,.37,7.52.28a45,45,0,0,0,11-1.69c.19-.05.37-.11.56-.16,4.11-.9,3.08-1.47,2.58-4.57a15.72,15.72,0,0,0-1.88-5.53c-.53.64-.06,1.28,0,1.94a13.47,13.47,0,0,1-.84-1.81c-.69-1.75-1.74-3-3.84-2.85A1.22,1.22,0,0,1,276.38,291.66Z" transform="translate(-24.33 -142.22)"/><path id="_Контур_24" data-name="&lt;Контур&gt;" class="cls-18" d="M254,275.94c-4.51-.5-7.8,2-11.06,4.51a41,41,0,0,0-6.23,6.24c-.4.47-.88.93.2,1.2,5.78,1.48,11.53,3.11,17.6,2.9a46.68,46.68,0,0,1,5.49-.32c.55,0,1-.23,1-.83-.37-2.95-.46-6-1.85-8.69,0,0-.07-.07-.11-.1a5.89,5.89,0,0,1-1.45-1.78A10,10,0,0,0,254,275.94Z" transform="translate(-24.33 -142.22)"/><path id="_Контур_25" data-name="&lt;Контур&gt;" class="cls-18" d="M219,288.77a1.32,1.32,0,0,1-.37,1.06c-2.17,2.11-3.33,4.94-5.2,7.28-.59.74-.07,1.36.32,2a9.89,9.89,0,0,0,5.94,3.87,17.84,17.84,0,0,0,3.88,1c.9.05.89-.22,1-.89a17.78,17.78,0,0,1,1.3-5.73c1.17-2.5,3.07-4.44,4.85-6.44,2.06-2.31,2.15-2.27-.83-3.13-1.79-.52-3.62-1-5.39-1.54-1.58-.52-2.55.38-3.54,1.3a3.59,3.59,0,0,1-1.92,1.22Z" transform="translate(-24.33 -142.22)"/><path id="_Контур_26" data-name="&lt;Контур&gt;" class="cls-18" d="M267,289.92c3.51.18,7.36-.71,11.25-.89.87,0,.73-.44.29-.88-3.56-3.55-7-7.29-11.24-10-2.27-1.45-4.92-1.58-7.51-1.88-.87-.1-1,.33-.64,1.06.61,1.26,1.2,2.52,1.75,3.8a17.92,17.92,0,0,1,1.46,7.18c0,1.23.26,1.81,1.6,1.65A28.28,28.28,0,0,1,267,289.92Z" transform="translate(-24.33 -142.22)"/><path id="_Контур_27" data-name="&lt;Контур&gt;" class="cls-18" d="M282.66,291a9,9,0,0,1,1.23,2.72,34.74,34.74,0,0,1,2.41,8c.22,1.16.52,1.76,2,1.3,2.39-.75,4.86-1.22,7.3-1.78.58-.13.78-.21.51-.94a34.38,34.38,0,0,0-5.7-10.3,1.2,1.2,0,0,0-1.57-.47,13.13,13.13,0,0,1-5.1.93C283.32,290.48,282.82,290.38,282.66,291Z" transform="translate(-24.33 -142.22)"/><path id="_Контур_28" data-name="&lt;Контур&gt;" class="cls-18" d="M244.12,277a82.66,82.66,0,0,0-14.26,4.57,28.64,28.64,0,0,0-4,2.63c-.55.38-.43.77.13.92,2.52.65,5.05,1.26,7.59,1.86.51.12.79-.31,1.08-.63,1.56-1.72,3.11-3.44,4.65-5.18A32,32,0,0,1,244.12,277Z" transform="translate(-24.33 -142.22)"/><path id="_Контур_29" data-name="&lt;Контур&gt;" class="cls-18" d="M287.87,287.15c-4.67-4.29-10.63-5.79-16.23-8.26,0,.48.37.68.6.91,2.29,2.3,4.77,4.43,6.82,6.92,1.68,2,3.62,2.08,5.79,1.64A7.58,7.58,0,0,0,287.87,287.15Z" transform="translate(-24.33 -142.22)"/><path id="_Контур_30" data-name="&lt;Контур&gt;" class="cls-20" d="M251.64,293.4c-.32.06-.68-.1-1.11.34,1.6.39,3.09.74,4.58,1.13a11.72,11.72,0,0,1,2.33.74c1.25.63,2.26,1.48,2.07,3.13a1.16,1.16,0,0,0,.5,1.36c-.06-2,.54-3.8.31-5.64-.12-1-.91-.78-1.59-.66a14,14,0,0,1-6.51-.38Z" transform="translate(-24.33 -142.22)"/><path id="_Контур_31" data-name="&lt;Контур&gt;" class="cls-21" d="M276.38,291.66c-.08.88.51.93,1.13.86,1.88-.22,2.83.82,3.43,2.41.32.85.68,1.68,1,2.52.11.28.28.58.62.43s.15-.4.1-.64c-.17-.8-.31-1.6-.46-2.4-.22-.53-.44-1.06-.67-1.58-.85-2-1-2-3.13-1.67A13.78,13.78,0,0,1,276.38,291.66Z" transform="translate(-24.33 -142.22)"/><path id="_Контур_32" data-name="&lt;Контур&gt;" class="cls-22" d="M254,275.94c0,.17-.05.48,0,.5,1.89.6,2.74,2.27,3.86,3.68.28.35.43,1,1.13.74-.45-1.16-.87-2.34-1.37-3.48C256.86,275.73,255.33,276,254,275.94Z" transform="translate(-24.33 -142.22)"/><path id="_Контур_33" data-name="&lt;Контур&gt;" class="cls-23" d="M272.59,230a33.64,33.64,0,1,0,33.6-33.77A33.7,33.7,0,0,0,272.59,230Z" transform="translate(-24.33 -142.22)"/><path id="_Контур_34" data-name="&lt;Контур&gt;" class="cls-24" d="M307.22,197.91C290,197.6,276.14,212,276.1,228.77a31,31,0,0,0,31.19,31.34c17.62-.19,31.09-13.71,31-31.62A30.68,30.68,0,0,0,307.22,197.91Z" transform="translate(-24.33 -142.22)"/><path id="_Контур_35" data-name="&lt;Контур&gt;" class="cls-25" d="M324.12,212.09a4.78,4.78,0,1,0-4.73,4.72A4.76,4.76,0,0,0,324.12,212.09Z" transform="translate(-24.33 -142.22)"/><path id="_Контур_36" data-name="&lt;Контур&gt;" class="cls-26" d="M320.05,209.35c0,.77.41,1.22,1.09,1.2a1,1,0,0,0,1.05-1.16,1,1,0,0,0-1-1A1.06,1.06,0,0,0,320.05,209.35Z" transform="translate(-24.33 -142.22)"/><polygon id="_Контур_37" data-name="&lt;Контур&gt;" points="480.02 0 500.2 4.21 495.5 23.89 474.64 23.21 480.02 0"/><polygon id="_Контур_38" data-name="&lt;Контур&gt;" points="515.18 4.88 535.87 9.25 531.83 25.4 510.3 24.56 515.18 4.88"/></svg>