<?xml version="1.0" encoding="utf-8"?>
<!-- Generator: Adobe Illustrator 20.1.0, SVG Export Plug-In . SVG Version: 6.00 Build 0)  -->
<svg version="1.1" id="Слой_1" xmlns="http://www.w3.org/2000/svg" xmlns:xlink="http://www.w3.org/1999/xlink" x="0px" y="0px"
	 viewBox="0 0 922.7 279.7" style="enable-background:new 0 0 922.7 279.7;" xml:space="preserve">
<style type="text/css">
	.st0{fill:#49B1E5;}
	.st1{fill:#2E312F;}
	.st2{fill:#342F29;}
	.st3{fill:#2B3221;}
	.st4{fill:#8CBF44;}
	.st5{fill:#78B02B;}
	.st6{fill:#9FC656;}
	.st7{fill:#7BB02F;}
	.st8{fill:#A57C51;}
	.st9{fill:#C49C70;}
	.st10{fill:#8CBF45;}
	.st11{fill:#77AB31;}
	.st12{fill:#8CBF43;}
	.st13{fill:#7AAF2D;}
	.st14{fill:#78AE2E;}
	.st15{fill:#2F3230;}
	.st16{fill:#79B12C;}
	.st17{fill:#C49A6B;}
	.st18{fill:#C49A6A;}
	.st19{fill:#D7AD80;}
	.st20{fill:#D6AC80;}
	.st21{fill:#D7AC7F;}
	.st22{fill:#E3E4E3;}
	.st23{fill:#FFFFFF;}
	.st24{fill:#333333;}
	.st25{fill:#D9D9D9;}
</style>
<title>123</title>
<g id="_Группа_">
	<path id="_Составной_контур_" d="M106.3,70H91.7l-6.1-22.4c-1,0-2.1,0.1-3.4,0.2c-1,0.1-2.2,0.2-3.4,0.3
		s-2.6,0.1-3.8,0.1c-2.8,0.1-5.6,0.5-8.4,1c-2.9,0.6-5.9,1.3-9.1,2.2h0.1C47.6,54,41,60.1,38,69.6c-2.9,8.9-4.6,18.2-4.8,27.5
		c-0.3,9.5,1,18.9,3.8,28c1.3,4.6,4,8.6,7.6,11.7c3.5,2.9,7.6,5.1,11.9,6.4c4.7,1.5,9.5,2.3,14.4,2.6c5.1,0.3,10,0.4,14.7,0.4
		c1.1-3.6,2.3-7.6,3.5-11.9c1.2-4.4,2.4-8.5,3.5-12.5h14c-0.9,6.5-1.8,12.6-2.8,18.3c-1,5.7-1.9,11.6-2.8,17.8
		c-3.2,1-6.5,1.9-9.8,2.5c-4.7,1-9.4,1.7-14.2,2.2c-5.5,0.6-11,0.9-16.5,0.8c-5.5,0-11-0.4-16.5-1.2c-4.9-0.7-9.7-2.1-14.2-4
		c-3.9-1.6-7.3-4.2-9.8-7.6v0.2c-3.5-3.2-6.3-7.1-8.2-11.4c-2.2-4.8-3.8-9.9-4.8-15.1c-1.1-5.7-1.7-11.4-1.8-17.2
		c-0.1-5.8,0.1-11.7,0.8-17.5c0.6-5.5,1.6-11,2.9-16.4c1.2-4.7,2.7-9.3,4.7-13.7C19,47.9,26.8,40.1,37.1,35.9
		c5.4-2.3,11-3.8,16.8-4.5c5.7-0.7,11.4-1.1,17.2-1.1c4,0,8.1-0.2,12.1-0.6c3.6-0.4,6.6-0.8,9.1-1.3c2.5-0.5,5-1.1,7.4-1.9L106.3,70
		z"/>
	<path id="_Составной_контур_2" d="M134.4,29.9c5.2,0.3,10.1,0.6,14.9,0.8l14.2,0.7c4.7,0.2,9.5,0.5,14.2,0.8
		s9.7,0.6,14.9,0.9L214,145c1.2,0.3,2.8,0.8,4.7,1.5c1.9,0.7,3.6,1.2,5.2,1.7v11.4h-40.4c0-2.6,0-4.6,0.1-6.1
		c0.1-1.5,0.1-3.3,0.1-5.5l11.1-3.2l-6.2-27.9l-2.9-20.3l0.2-7.7l-9.3-37.7H164l-10.3,38.2c0,1,0,2.3-0.1,3.9
		c-0.1,1.6-0.1,2.9-0.1,3.9l-2.9,20l0.2-0.3l-6.6,27.9l5,1.7c2,0.7,3.9,1.3,5.7,1.9v11.4h-41.9V148l9.9-2.9l25.1-102.9l-13.1,0.7
		L134.4,29.9z"/>
	<path id="_Составной_контур_3" d="M323.7,44.4c4.5,3.7,8.2,8.4,10.8,13.6c2.7,5.5,4.7,11.4,5.7,17.5
		c1.1,6.4,1.4,13,0.9,19.5c-0.5,6.7-1.7,13.4-3.5,19.8c-1.8,6.4-4.3,12.6-7.5,18.5c-3,5.6-6.8,10.8-11.2,15.4
		c-4.2,4.4-9.2,7.9-14.6,10.5c-5.6,2.6-11.6,4-17.8,4c-8.1,0.1-16.1-1.3-23.7-4.1c-6.7-2.5-12.7-6.4-17.8-11.4
		c-5-4.9-8.9-10.8-11.6-17.2c-2.9-6.9-4.6-14.1-5.1-21.5c-0.6-8.1-0.1-16.3,1.5-24.3c1.7-8.8,4.5-17.4,8.3-25.5
		c5.3-11.4,13.1-19.3,23.4-23.6c4.5-2,9.2-3.5,14-4.5c4.8-1,9.7-1.5,14.6-1.3C302.5,31,313.7,35.8,323.7,44.4z M285,51.1
		c-4.1,0-8.1,1.4-11.3,4c-3.5,2.8-6.5,6.4-8.7,10.4c-2.5,4.6-4.5,9.5-5.7,14.6c-1.4,5.5-2.3,11.1-2.7,16.8
		c-0.3,5.6-0.1,11.3,0.8,16.8c0.8,5.1,2.3,10,4.6,14.6c2,4.1,5,7.6,8.7,10.4c3.8,2.7,8.4,4.1,13.1,4c4.5,0.1,8.9-1.3,12.5-4
		c3.6-2.8,6.6-6.3,8.7-10.4c2.4-4.6,4.1-9.5,5-14.6c1.1-5.5,1.6-11.2,1.6-16.8c0-5.7-0.6-11.3-1.8-16.8c-1-5.1-2.8-10-5.2-14.6
		c-2.1-4-4.9-7.5-8.4-10.4C293.1,52.5,289.1,51.1,285,51.1L285,51.1z"/>
	<path id="_Составной_контур_4" d="M370.6,162.8c-2.9-0.7-5.9-1.3-9-1.9c-3.2-0.6-6.4-0.9-9.7-1c0-2.4,0-4.4,0.1-6
		c0.1-1.6,0.1-3.4,0.1-5.3l10.4-1.9V49.9c-1.2-0.2-2.8-0.5-4.8-0.9c-2-0.4-3.8-0.8-5.6-1.1V31.6l38.7,3.2c4.4-1.3,8.9-2.4,13.5-3.1
		c3.7-0.6,7.4-0.9,11.1-0.9c6.7,0,11.9,1.5,15.6,4.5c3.5,3,6.5,6.7,8.7,10.8c2.3,4.1,3.9,8.7,4.5,13.4c0.7,4.5,0.3,9.1-1.2,13.5
		c-1.5,4.4-4.4,8.3-8.2,11v-0.1c4.1,4.3,7.5,9.3,10.1,14.7c2.8,5.8,4.2,13.2,4.2,22.3c0.1,9.1-3,18-8.8,25.1
		c-2.9,3.5-6.2,6.6-9.9,9.3c-4,2.8-8.3,5.1-12.8,6.9c-3.7,1.2-7.6,2.2-11.4,2.9c-4.1,0.7-8.2,1-12.3,1c-2.2,0-4.6-0.1-7.1-0.3
		c-2.6-0.2-5.2-0.6-7.7-1.1L370.6,162.8z M386.4,147.4l17.5-0.8c6.5,0,12.7-2.7,18.7-8.1c4.6-4.6,6.9-11.1,6.9-19.5
		c0-2.6-0.2-5.3-0.5-7.9c-0.5-2.5-1.9-4.7-4-6.2c-2.3-1.7-4.9-2.9-7.6-3.7c-3-0.9-6.1-1.5-9.3-1.9c-3-0.3-6-0.5-9.1-0.5
		c-1.2,0-2.6,0-4,0.1s-2.8,0.1-4,0.3l-4.5,0.3L386.4,147.4z M386.7,88.4c0.9,0.1,1.9,0.2,3,0.3c0.9,0.1,1.9,0.2,3.1,0.3
		s2.4,0.1,3.6,0.1c3,0,6-0.3,9-0.7c3.3-0.4,6.6-1.3,9.7-2.7c3-1.3,5.6-3.3,7.7-5.7c2.1-2.5,3.2-5.8,3.2-9.9v-7.1
		c0-2.4-0.6-4.8-1.7-6.9c-1.8-3.6-5.1-6.2-9.1-7.1c-2-0.5-4.1-0.8-6.2-0.8c-2.2,0-4.4,0.3-6.6,0.8c-2.2,0.5-4.3,1.3-6.3,2.3
		c-1.9,0.9-3.7,2-5.4,3.3c-1.5,1.1-2.9,2.4-4,3.9L386.7,88.4z"/>
	<path id="_Составной_контур_5" d="M555.5,121.3l-6.1,38.4h-91.5V148l10.8-3V48.3l-5-0.8c-2-0.3-3.9-0.7-5.8-1.2
		V29.9l38.3,3.4h53.3c1.1,7,2.2,13.4,3.2,19.4c1,6,2,12.4,3,19.1h-14.3l-7.2-24.7l-41.4,4l0.2,38.3h35.2c0.1,2.7,0.2,5.1,0.3,7.3
		c0.1,2.2,0.2,4.5,0.3,6.8H493l-0.2,38.2l41.5,4.2c1.1-3.6,2.3-7.7,3.5-12.2c1.2-4.5,2.4-8.7,3.5-12.5L555.5,121.3z"/>
	<path id="_Составной_контур_6" d="M562,148l10.6-3V48.4l-10.6-2V30.1c6.4,0.4,12.3,0.9,17.8,1.5
		c5.5,0.6,11.3,1.1,17.3,1.5L597,82.6h42.2V33.3h24.6V145l10.4,3v11.6h-45.4V148l10.4-3v-44.9H597l0.2,44.9l10.6,3v11.6H562V148z"/>
	<path id="_Составной_контур_7" d="M774.1,44.4c4.5,3.7,8.2,8.4,10.8,13.6c2.7,5.5,4.7,11.4,5.7,17.5
		c1.1,6.4,1.4,13,0.9,19.5c-0.5,6.7-1.7,13.4-3.5,19.8c-1.8,6.4-4.3,12.6-7.5,18.5c-3,5.6-6.8,10.8-11.2,15.4
		c-4.2,4.4-9.2,7.9-14.7,10.5c-5.6,2.6-11.6,4-17.8,4c-8.1,0.1-16.1-1.3-23.7-4.1c-6.6-2.6-12.7-6.4-17.8-11.4
		c-5-4.9-8.9-10.8-11.6-17.2c-2.9-6.9-4.6-14.1-5.1-21.5c-0.6-8.1-0.1-16.3,1.5-24.3c1.7-8.8,4.5-17.4,8.3-25.5
		c5.3-11.4,13.1-19.3,23.4-23.6c4.5-2,9.2-3.5,14-4.5c4.8-1,9.7-1.5,14.6-1.3C753,31,764.1,35.8,774.1,44.4z M735.4,51.1
		c-4.1,0-8.1,1.4-11.3,4c-3.5,2.8-6.5,6.4-8.7,10.4c-2.5,4.6-4.5,9.5-5.7,14.6c-1.4,5.5-2.3,11.1-2.6,16.8
		c-0.3,5.6-0.1,11.3,0.8,16.8c0.8,5.1,2.3,10,4.6,14.6c2,4.1,5,7.6,8.7,10.4c3.8,2.7,8.4,4.1,13.1,4c4.5,0.1,8.9-1.3,12.5-4
		c3.6-2.8,6.6-6.3,8.7-10.4c2.4-4.6,4.1-9.5,5-14.6c1.1-5.5,1.6-11.2,1.6-16.8c0-5.7-0.6-11.3-1.8-16.8c-1-5.1-2.8-10-5.2-14.6
		c-2.1-4-4.9-7.5-8.4-10.4C743.6,52.5,739.6,51.1,735.4,51.1z"/>
	<path id="_Составной_контур_8" d="M795.7,148l10.4-3v-39.6c0-10.6,0-19.5,0.1-26.7c0.1-7.2,0.1-13.1,0.1-17.7V48.4
		l-10.6-2V30.1c6.3,0.4,12.1,0.9,17.6,1.5c5.4,0.6,11.2,1.1,17.2,1.7v53l13.3-0.2c3.3-11.6,6.1-21.5,8.5-29.9c2.4-8.3,4.6-16,6.5-23
		c5.7-0.4,11-0.9,15.7-1.4l15.4-1.6c0,3.3,0,6-0.1,8.3s-0.1,4.9-0.1,7.8l-9.6,1.9l-14.6,44.6l15,52.3l9.9,2.9v11.6
		c-6.1,0.1-11.4,0.2-16,0.3c-2,0-4,0-5.9,0.1l-5.1,0.2c-1.5,0.1-3.2,0.1-5,0.1l-14.6-56.6h-13l-0.3,41.4l10.6,3v11.6h-45.4V148z"/>
</g>
<path id="_Составной_контур_9" class="st0" d="M888.3,164.1c-20.5-4.4-84.9-0.1-93.8,0.6c-20.2,1.5-42.5,3.1-65.7,2
	s-87.6,3.1-121.9-0.9s-83.7-1.5-106.8-1.7c-23.1-0.2-55.1-4.1-68.5-0.1s-58,4-69.1,3.2c-55.9-3.8-49.5,1.5-64.6,0.8
	s-66.7,0.2-76.9,2.9c-2.3,0.5-4.5,0.8-6.9,0.9c0-0.5-0.1-0.9-0.2-1.4c-0.3-0.5-0.6-0.2-0.7,0.1c-0.2,0.4-0.2,0.9-0.2,1.3
	c-20.9,1.6-71.5,0.9-94.3-1.9c-26.7-3.3-101.5-8.8-117.6,0.9c-15.7,9.4,109.2,11.7,154.4,11.2c6.4-0.1,13-0.2,19.7-0.4
	c-0.9,1-0.7,1.6,0.6,2.3c3.3,1.6,6.7,2.9,10.3,3.6c6,1.4,12.1,2.5,18.2,3.2c4.2,0.5,8.3,0.8,12.5,1.2c5.8,0.5,11.7,0.7,17.5,0.5
	c5.4-0.2,10.9-0.6,16.3-1.3c4.3-0.6,8.7-0.9,13-1.5c4.5-0.6,9.1-0.9,13.6-1.4c1.2-0.2,2.5-0.2,3.8-0.3c3.9,0,7.8-0.6,11.8-0.3
	l1.1,0.1c1.3,0.3,2.6,0.7,3.8,1c39.6,11,124.7-3.4,156.9-5.7s89-16.4,119.8-10.5s297.8,3.9,332.7,9.5S908.9,168.5,888.3,164.1z
	 M208.4,186c-0.9,0-1.7,0.3-2.4,0.8c-2.5,1.7-5.7,1.7-8.2,0c-1.3-0.9-2.5-2-3.4-3.4c-0.5-0.6-0.8-1.3-1-2c6.5-0.1,13-0.2,19.6-0.3
	c0,0.3-0.1,0.5-0.1,0.8C212.4,185,211.5,185.9,208.4,186L208.4,186z M256.2,186.8c-1.8-0.2-3.1-1.7-3.1-3.5c0-0.3,0-0.7,0-1
	c4.6,0.3,9,0.7,13.4,1.1C264,186.9,259.2,187.2,256.2,186.8L256.2,186.8z"/>
<path id="_Контур_" class="st1" d="M270.1,146.2c-0.3-3.8,0-7.7,1-11.4c1-3.7,1-3.8,4.6-3.5c6.2,0.7,12.5,0.6,18.7-0.1
	c7.6-1.1,14.2-4.6,20.4-9.1c0.6-0.5,1.4-0.8,2.3-0.7c1.7,0.1,3.4-0.1,5.1-0.4c6.2-1.1,10-4.8,11.7-10.9c2.6-9.2,2.2-18.9-1-27.9
	C327.7,67,318,55.5,303.3,48.6c-9.8-4.6-20.1-5.4-30.7-3.6c-6.5,1.1-12.8,3-18.4,6.8c-8.1,5.3-13.7,13.7-15.4,23.2
	c-4,19.5,1.9,35.8,16.7,48.9c1.7,1.4,3.5,2.6,5.5,3.5c0.6,0.2,1,0.9,0.8,1.5c0,0,0,0,0,0c-0.4,2.7-0.5,5.5-0.4,8.3
	c1-0.1,0.8-0.9,0.7-1.4c-0.2-1.1-0.2-2.2-0.2-3.3c0,0.9,0,1.8,0.1,2.6c1.1-0.4,0.6-1.4,0.8-2.1c0-1.6,0.1-3.3,0.4-4.9
	c0.3-1.2-0.4-2.4-1.5-2.8c-2.6-1.3-5.1-3-7.3-5c-5.2-4.6-9.2-10.5-11.6-17c-2.5-7-3.5-14.4-2.9-21.8c0-1.8,0.2-3.7,0.7-5.5
	c0.8-4.5,2.4-8.8,4.9-12.7c3.8-6,9.2-10,15.6-12.8c5.5-2.4,11.4-3.8,17.5-4.2c4.8-0.4,9.7-0.1,14.4,0.8c2.8,0.6,5.5,1.3,8.1,2.3
	c5.2,2,10,4.9,14.2,8.7c9.6,8.7,15.8,20.4,17.6,33.2c1.1,6.1,0.8,12.4-1,18.3c-0.3,0.9-0.7,1.7-1.1,2.5c-0.4,0.7-0.8,1.4-1.3,2.1
	c-1.9,3-5.2,4.8-8.7,4.9c-1.7,0-3.4,0-5.1,0.2c-3.6,2-7,4.3-10.7,6.2c-4.9,2.7-10.4,4.1-16,4.2c-0.3,0-0.6,0-0.9,0.1
	c-1.9,0.3-3.8,0.3-5.6,0.1c-4.6-0.2-9.3-0.9-13.8-2c-0.2-0.1-0.5-0.1-0.7-0.1c-0.3,0-0.6,0-0.7,0.3s0.1,0.5,0.3,0.6
	c0.4,0.4,0.9,0.7,1.4,1c2.4,1.3,2,1.1,1.1,3.3c-1.2,3.7-1.7,7.7-1.5,11.6c0,0.4,0.1,0.9,0.4,1.2
	C269.2,146.3,269.7,146.4,270.1,146.2z"/>
<path id="_Контур_2" class="st2" d="M262,135.3v-3c-0.7,1.6,0.2,3.4-0.7,4.9c0,0,0,0.1,0,0.1c-0.2,0.9,0.3,2.3-0.5,2.7
	s-1.6-0.9-2.4-1.3c-6.1-3.4-12.9-5.5-19.8-6.3c-7.9-0.9-15.8-1-23.5,1.1c-12,3.3-21.1,10.5-28.1,20.6c-0.3,0.4-0.4,0.8-1,1
	c-1.8,0.8-1.8,1.1-0.9,2.8c0.1,0.2,0.2,0.3,0.3,0.5c-0.5,1,0.6,1.3,0.8,2c0.2,0.3,0.4,0.6,0.9,0.4c0.4-0.2,0.6-0.5,0.5-0.9
	c-0.3-1.2-1.4-2-1.4-3.3c0.7,0,0.9,0.5,1.1,0.9c2.8,5.3,7.5,7.3,13.1,7.5c5.7,0.2,11.4,0,17.1-0.5c4-0.2,8,0.1,11.9,1
	c6.8,1.4,13.8,1.9,20.7,1.5c4.2-0.2,8.3-1.4,12.4-2.5c3.4-0.9,6.8-2.1,10.2-2.9c0.5-0.2,1.1-0.3,1.7-0.1c-0.8,0.7-1.7,1.2-2.7,1.5
	c-4.3,1.5-8.8,2.6-13.3,3.3c-0.9,0-1.7,0.2-2.5,0.7c0.9,0.9,2.2,1.2,3.4,0.8c1.1-0.4,2.2-0.5,3.4-0.6c0.2,0.1,0.5,0.2,0.8,0.2
	c0.3-0.1,0.7,0,1-0.1c-0.1-0.9,0.6-0.7,1-0.8c2.5-0.6,5-1.4,7.5-2.4c1-0.4,1.9-0.9,2.7-1.7c0.7-0.7,0.8-1.4-0.1-1.9
	c-0.6-0.3-1.1-1-1.2-1.7c-0.8-3.1-2-6.1-3.5-9c-1.1-0.8-0.5-2-0.6-3v-0.5l-0.9-0.3c-0.2,0.2-0.3,0.5-0.3,0.9c-1.3-1.9-3-3.6-5-4.7
	c-1.1-0.6-1.8-1.8-1.6-3.1C262.3,137.8,262.7,136.5,262,135.3z"/>
<path id="_Контур_3" class="st3" d="M264.3,167.2c-0.3-0.1-0.5-0.8-0.9-0.1c0,0.6,0.3,1.2,0.7,1.7c1.9,2.5,3.5,5.1,5,7.8
	c0.7,1.6,0.5,2.2-1.1,3.5c-0.5-4.3-3.7-6.9-6.1-9.9l-0.1-0.1c-0.5-0.6-1.3-1.2-1.3-1.9c0.1-0.9,1.3-0.5,1.9-0.9
	c0.2-0.1,0.4-0.3,0.5-0.5c-1-0.2-2-0.1-2.9,0.2c-1.3,0.4-2.7,0.4-4.1,0.1c-0.6-0.6-1.4-0.4-2.1-0.2c-3,0.5-6,0.9-9,0.9
	c-3.4,0-6.8-0.3-10.1-0.9c-4.6-0.6-9.3-1.2-14-1.6c-3.1-0.3-6.2,0.5-9.3,0.7c-5,0.4-10,0.9-15-0.3c-3.1-0.6-5.9-2.3-7.9-4.8
	c-0.2-0.4-0.7-0.7-1.1-0.8l-0.5,0.7c0,1.7,1.4,2.4,2.3,3.2c-5.7-1.1-8.7-5.1-9.6-12.8c0.4,3.5,2.4,6.7,5.5,8.5
	c0.4,0.3,0.8,0.6,1.3,0.3c0-0.8-1.1-0.9-0.9-1.8c-0.7,0.2-1.1-0.3-1.5-0.7c-2.5-2.5-4.1-5.9-4.3-9.4c0-0.5-0.1-0.9-0.2-1.4
	c-0.9,3.5-0.9,7.1,0.1,10.6c1.7,4.5,5.9,7.5,10.8,7.8c0.4,0,0.9,0.1,1.3,0.3c3,1.5,6.4,2.3,9.8,2.2c1.1,0,1,0.4,0.6,1.2
	c-1.2,2.3-2.9,4.3-4.9,5.9c-1.5,1-2.7,2.3-3.7,3.8c-0.8,3.4,0.8,6.5,4.6,8.8c2.8,1.8,6.4,1.5,8.8-0.6c0.4-0.3,0.9-0.4,1.3-0.3
	c3.5,0.1,5-1.1,5.4-4.6c0.2-2.4,0.3-4.8,0.2-7.3c-0.1-1.4,0-2.9,0.3-4.3c0.2-0.2,0.4-0.4,0.4-0.7c0.1-1.8,1-2.3,2.7-2.4
	c2.3-0.1,4.6,0,6.9,0.4c4.8,0.7,9.6,1.7,14.5,2c3.7,0.3,7.5,0.1,11.1-0.4c2.3-0.3,2.5-0.1,2.8,2.1c0.3,1.9,0.3,3.8,0.6,5.8
	c0,1.8-0.5,3.6-0.4,5.5c0.2,3.2,1.4,4.5,4.6,4.6c3.4,0.2,6.7-0.2,9-3c1.1-1.5,2.3-2.8,3.7-4c1-0.7,1-2,0.8-3.2
	C268.9,173.5,266.8,170.2,264.3,167.2z"/>
<path id="_Контур_4" class="st1" d="M270.1,146.8c-0.3,0.7-0.5,1.5-0.4,2.2c0.1,0.6,0.4,0.8,1,0.7L270.1,146.8z"/>
<path id="_Контур_5" class="st4" d="M330.9,112.4c1.7-3.4,2.6-7.2,2.6-11.1c0.6-15-4.4-28-14.1-39.2
	c-4.7-5.5-10.7-9.8-17.4-12.6c-0.4-0.1-0.7-0.2-1.1-0.3c-1.1,0.3-0.6,0.8-0.1,1.2c0.7,0.5,1.5,0.9,2.3,1.2c4.4,1.9,8.4,4.7,11.8,8.1
	c0.4,0.3,0.6,0.7,0.8,1.1c-4.6-3.2-8.9-6.6-13.9-8.8c-5.1-2.1-10.3-3.7-15.6-5c1.6,0.2,3.3-0.1,4.9,0.3c0.6,0.2,1.2,0.1,1.6-0.3
	c-4.3-1-8.6-1.4-13-1.1c-5.8,0.3-11.5,1.4-16.9,3.4c-10.4,3.9-18,10.6-21.7,21.4c-0.6,1.7-1,3.5-1.3,5.4c-0.1,0.1-0.1,0.3-0.1,0.4
	c0,0.2,0.5,0.1,0.4,0.6c-0.7,4.2-0.4,8.4-0.2,12.6c0,1.4,0.3,2.7,0.4,4c0.7,5.4,2.4,10.5,5.2,15.2c3.1,5.3,7.6,9.8,13,12.9
	c6.9,4.2,14.6,6.3,22.4,7.7c2.3,0.4,4.7,1.2,7.2,0.7c6.7,0.2,12.7-1.8,18.4-5.1c3.1-1.6,6.1-3.5,8.9-5.4c0.8-0.6-0.2-0.8-0.4-1.2
	c3.9,0.3,7.8-0.5,11.2-2.4c1.8-0.8,3.2-2.1,4-3.9C330.5,112.3,330.7,112.6,330.9,112.4z"/>
<path id="_Контур_6" class="st5" d="M288.2,130.2c-3.4-0.4-6.8-1-10.1-1.7c-1.5-0.4-3.1-0.7-4.6-1.1c-3.8-0.9-7.5-2.3-11-4.1
	c-4.4-2-8.4-4.9-11.7-8.4c-2.6-2.7-4.7-5.8-6.2-9.2c-2.2-4.9-3.5-10.1-3.9-15.4c-0.3-4.3-0.3-8.6,0-12.9c0.1-0.6,0.2-1.2-0.6-1.5
	c-0.8,1.5-0.7,3.2-0.8,4.8c-0.9,14.6,2.4,27.9,13.2,38.5c2.7,2.6,5.7,4.8,9.1,6.5c0.9,0.3,1.4,1.2,1.1,2.1c0,0,0,0,0,0.1
	c-0.2,1.6-0.4,3.3-0.4,4.9c2.6,0.8,5.5,0.9,8.1,0.3c1.2-2.2,1.2-2.2-1-3.4c-0.7-0.4-1.4-0.9-2-1.4c2.5,0.6,4.9,1.1,7.4,1.4
	c4.2,0.6,8.5,0.8,12.7,0.7C287.7,130.4,288,130.3,288.2,130.2z"/>
<path id="_Контур_7" class="st4" d="M270.4,133.1c-0.5-0.5-1.1,0.1-1.7,0c-2.1-0.2-4.3-0.2-6.5-0.3c0,0.8-0.1,1.6-0.3,2.4
	c0,1.6,0,3.3-0.1,4.9c0,0.5-0.1,1,0.4,1.3c2.6,1.8,5.3,3.6,7.1,6.8l-0.2-2.3c-0.7-3.7,0-7.4,0.8-11
	C270.1,134.4,270.3,133.8,270.4,133.1z"/>
<path id="_Контур_8" class="st6" d="M292.8,46.9c-2.1-0.1-4.1-0.3-6.2-0.4c-0.5,0-1.1-0.3-1.2,0.3s0.6,0.6,0.9,0.6
	c2.9,0.7,5.7,1.5,8.5,2.3c6,1.8,11.6,4.6,16.6,8.3c1.6,1.3,3.4,2.5,5.2,3.4c-0.4-1.7-1.7-2.5-2.8-3.5c-3.7-3.2-7.9-5.8-12.4-7.7
	c-0.4-0.2-1.3-0.3-0.5-1.1C298.4,48.1,295.6,47.3,292.8,46.9z"/>
<path id="_Контур_9" class="st7" d="M330.9,112.4c-0.3,0-0.4-0.7-0.9-0.1c-2.5,3.6-6.3,4.8-10.3,5.6c-1.9,0.2-3.7,0.3-5.6,0.1
	c0.1,0.8,0.6,0.9,1.1,1s0.4,0.3,0.3,0.6c1.7,0,3.4,0.1,5.1,0c4.2-0.3,7.5-2.1,9.5-6C330.3,113.3,330.9,113,330.9,112.4z"/>
<path id="_Контур_10" class="st8" d="M194.7,146.5c-1.3,1-2.4,2.1-3.3,3.5c-1.1,1.3-2,2.8-3,4.1c-0.6,0.6-0.7,1.5-0.2,2.2
	c1.6,3.2,4.6,5.4,8.1,6.1c3.8,0.8,7.8,1.1,11.7,0.8c8.3-0.4,16.6-0.5,24.9,1.1c8.9,1.9,18.1,1.6,26.7-1c4.3-1.3,8.7-2.3,13.1-3.3
	c0.8-0.2,1-0.4,0.7-1.3c-3.4-10.3-10.2-17.1-20.1-21.2c-7.7-3.3-16-4.9-24.3-4.7c-11.3,0.3-21.7,3.2-30.6,10.4
	C196.9,144.2,195.7,145.3,194.7,146.5c0.9,0.4,1.5-0.2,1.9-0.7c1.2-1.5,3.2-1.9,4.8-1.1c1.6,0.6,3.3,1.1,5,1.5c1,0.3,1,0.8,0.4,1.4
	c-1,1.1-1.9,2.3-2.9,3.4c-2.4,2.5-3.8,5.8-4,9.3c-0.1,0.9-0.4,1.2-1.2,1c-2.6-0.8-5.4-1.3-7.6-3.1c-0.5-0.5-1-1-1.3-1.5
	c-0.5-0.6-0.5-1.4,0-2c1.6-2.2,2.8-4.6,4.6-6.6C194.7,147.7,195.2,147.2,194.7,146.5z"/>
<path id="_Контур_11" class="st9" d="M187.3,160.2c3.1,4.9,8,6.2,13.2,6.7c4.6,0.3,9.1,0,13.6-0.7c4.4-0.5,8.9-0.4,13.3,0.3
	c5.1,0.6,10.2,1.5,15.3,1.8c3.7,0.1,7.4-0.2,11-0.8c0.7-0.1,1.3-0.2,2-0.2c4-0.9,8-1.5,11.9-2.6c2.1-0.5,4.1-1.2,6-2.2
	c0.6-0.3,1.6-0.6,1.4-1.3s-1.2-0.3-1.8-0.2c-3.6,0.8-7,1.9-10.5,2.9c-7.1,2.3-14.6,3.2-22.1,2.7c-4.3-0.4-8.7-1-12.9-1.8
	c-5.5-1-11-0.7-16.5-0.4c-4.8,0.3-9.6,0.6-14.3-0.4c-4.4-0.9-7.7-3.2-9.6-7.4c-0.3-0.6-0.7-1.2-1.4-0.8s-0.3,1.1-0.1,1.6
	C186.2,158.4,186.8,159.3,187.3,160.2z"/>
<path id="_Контур_12" class="st10" d="M186.3,160.2c-4-2-6-5.4-6.9-9.6c-0.9,7,4.3,14,10.4,14c-1.3-0.9-2.4-2.2-3.1-3.6
	L186.3,160.2z"/>
<path id="_Контур_13" class="st11" d="M264.3,168.6l-0.9-1.5l-0.6-0.3c-0.7,0.4-1.4,0.5-2.2,0.5c-1.2,0.2-1,0.6-0.4,1.2
	s1,1.2,1.5,1.8C262.5,169.8,263.9,169.8,264.3,168.6z"/>
<path id="_Контур_14" class="st4" d="M202.6,169.5c-1.7,3-4,5.6-6.8,7.6c-2.5,1.7-2.6,3.2-1,5.8s3.9,4.6,7.2,4.6
	c2.4,0.1,4.5-1.4,5.2-3.6c1.1-2.7,1.1-5.7,1.7-8.5c0.4-1.6,0.6-3.3,0.9-5c0.2-0.6,0.1-1.1-0.7-1.1
	C207,169.3,204.8,169.3,202.6,169.5z"/>
<path id="_Контур_15" class="st4" d="M253.8,171.6c0.1,3.2,0,6.4-0.3,9.6c-0.1,1,0,2.1,0.4,3c0.5,1.4,1.8,2.4,3.4,2.3
	c2.1,0.1,4.1-0.4,6-1.4c3.4-1.7,4.5-4,2.1-8.3c-1.4-2.4-3.2-4.5-5.2-6.4C258,170.6,255.9,171.2,253.8,171.6z"/>
<path id="_Контур_16" class="st12" d="M212.8,175.3c0.1-2.2,0.2-4.6,0.5-6.9c0-0.4,0.6-1.1-0.2-1.1c-0.7-0.1-1.4,0-1.7,1
	c-0.5,2.3-1,4.5-1.6,6.8s-0.5,4.8-1,7.2c-0.2,0.7-0.4,1.4-0.7,2c-0.5,1-0.2,1.3,0.8,1.3c2,0,3.7-1.4,3.9-3.4
	C213,179.9,213,177.6,212.8,175.3z"/>
<path id="_Контур_17" class="st4" d="M264.3,168.6c-0.7,0.9-2.2,0.6-2.7,1.8c1,1.2,2,2.5,3.1,3.7c1.7,1.9,3,3.9,2.9,6.6
	c2.1-0.8,2.8-2.2,1.9-4.1C268,173.8,266.3,171.1,264.3,168.6z"/>
<path id="_Контур_18" class="st13" d="M253.8,171.6c2.2,0.2,4.4-0.2,6.4-1.2l-0.1-0.1c-1.5-3-4.1-2.3-6.6-1.8
	c-0.5,0.1-0.7,0.3-0.5,0.8C253.3,170,253.6,170.8,253.8,171.6z"/>
<path id="_Контур_19" class="st14" d="M202.6,169.5c2.1,0.6,4.3,0.2,6.4,0.2c0.6,0,0.9,0,0.9,0.7c0.8-2.7,0.8-2.7-1.9-2.7
	c-1,0.1-1.9,0.1-2.9,0C203.7,167.6,202.8,168.1,202.6,169.5z"/>
<path id="_Контур_20" class="st15" d="M316.1,79.9c-1.1-4.1-2.8-8-5.1-11.5c-3.4-5.1-8.1-9.2-13.6-12c-0.5-0.2-1-0.5-1.4-0.7
	c-1-0.8-2.2-1.3-3.5-1.6c-8.2-2.9-17.2-2.5-25.1,1.1c-12.6,5.7-19.9,15.5-21.5,29.2c-1.2,10,2,20,8.8,27.4
	c12.2,13.9,33,16.1,47.9,5.2c7.7-5.6,12.8-14,14.2-23.4c0.7-3.9,0.6-7.8-0.1-11.7C316.7,81.2,316.5,80.5,316.1,79.9z"/>
<path id="_Контур_21" class="st16" d="M316.1,79.9c0.4,2.5,0.7,5.1,0.9,7.6c0.1,15.7-9.4,29.2-24.3,34.2
	c-8.4,3-17.6,2.5-25.6-1.3c-11.3-5.2-18.2-14-20.4-26.1c-1.8-9.1,0.2-18.6,5.6-26.1c5.7-8.5,14.8-14,24.9-15.2
	c5.8-0.8,11.8,0,17.2,2.2c0.5,0.2,1.1,0.4,1.6,0.6c0.2-0.4,0.1-0.6-0.3-0.8c-3.2-1.1-6.3-2.5-9.7-2.8c-3.2-0.3-6.4-0.3-9.6,0
	c-3.4,0.3-6.6,1.2-9.7,2.6c-2.7,1.2-5.2,2.6-7.6,4.3c-2.5,1.7-4.7,3.8-6.6,6.2c-2.1,2.3-3.7,5-4.9,7.9c-0.7,2-1.8,3.9-2.3,6.1
	c-0.8,3.1-1.3,6.2-1.3,9.4c0,4.3,0.8,8.7,2.3,12.7c3.5,9.6,10.7,17.3,20.1,21.3c5.2,2.4,11,3.4,16.7,3c5.4-0.3,10.6-1.8,15.3-4.4
	c3.7-2,7.1-4.7,10-7.8c1.7-2,3.2-4.1,4.5-6.4c2.4-3.9,4-8.3,4.6-12.8c0.8-4.5,0.6-9.2-0.6-13.6c-0.1-0.4-0.2-0.8-0.3-1.3
	C316.3,79.3,316.4,79.8,316.1,79.9z"/>
<path id="_Контур_22" class="st17" d="M227.3,151.2c-1.6-0.4-3.3-0.7-4.9-0.8c-3.6-0.7-7.2-1.7-10.7-3
	c-0.8-0.4-1.8-0.1-2.3,0.6c-2.3,3.1-4.9,6-5.6,10c-0.3,1.1-0.6,2.2-1.1,3.3c-0.3,0.8,0,1,0.7,1c3.4-0.1,6.8,0,10.1-0.1
	c3.8-0.3,7.6-0.3,11.4,0c2.7,0.3,5.3,0.8,8,1.2c0.4,0.1,0.8-0.1,1-0.4c1.2-2.2,2.4-4.4,2.4-7c0-1.4,0.3-2.9,0.2-4.3
	c0-0.7-0.2-1-1-0.9c-2.6,0.5-5.2,0-7.8,0.5c0.8,1,2,0.7,3.1,0.9c1,0.2,2.1,0.2,3.2,0c1.3-0.1,1.5,0.1,1.5,1.4
	c-0.1,0.8-0.2,1.7-0.2,2.5c0-1.6-1.1-2.5-2.4-3c-1.5-0.6-3-1-4.6-1.2C228,151.7,227.5,151.8,227.3,151.2z"/>
<path id="_Контур_23" class="st18" d="M252.1,149.4c-4.2,0.5-8.4,0.5-12.5,0.9c-0.9,0.1-0.8,0.5-0.9,1.2
	c-0.1,1.7,0.4,3.4,0.2,5.2c-0.2,2.3-1.2,4.3-1.5,6.5c-0.1,0.8-0.1,1.2,0.8,1.2c2.5,0.1,5,0.4,7.5,0.3c3.7-0.1,7.4-0.7,11-1.7
	c0.2,0,0.4-0.1,0.6-0.2c4.1-0.9,3.1-1.5,2.6-4.6c-0.3-1.9-0.9-3.8-1.9-5.5c-0.5,0.6-0.1,1.3,0,1.9c-0.3-0.6-0.6-1.2-0.8-1.8
	c-0.7-1.8-1.7-3-3.8-2.9C252.8,150,252.3,149.8,252.1,149.4z"/>
<path id="_Контур_24" class="st17" d="M229.7,133.7c-4.5-0.5-7.8,2-11.1,4.5c-2.3,1.9-4.4,3.9-6.2,6.2
	c-0.4,0.5-0.9,0.9,0.2,1.2c5.8,1.5,11.5,3.1,17.6,2.9c1.8-0.2,3.7-0.3,5.5-0.3c0.5,0,1-0.2,1-0.8c-0.4-3-0.5-6-1.9-8.7
	c0,0-0.1-0.1-0.1-0.1c-0.6-0.5-1.1-1.1-1.5-1.8C232.3,135.5,231.1,134.5,229.7,133.7z"/>
<path id="_Контур_25" class="st17" d="M194.7,146.5c0,0.4-0.1,0.8-0.4,1.1c-2.2,2.1-3.3,4.9-5.2,7.3c-0.6,0.7-0.1,1.4,0.3,2
	c1.4,2,3.5,3.4,5.9,3.9c1.3,0.5,2.6,0.8,3.9,1c0.9,0,0.9-0.2,1-0.9c0.1-2,0.6-3.9,1.3-5.7c1.2-2.5,3.1-4.4,4.9-6.4
	c2.1-2.3,2.1-2.3-0.8-3.1c-1.8-0.5-3.6-1-5.4-1.5c-1.6-0.5-2.6,0.4-3.5,1.3C196.1,145.9,195.5,146.4,194.7,146.5L194.7,146.5z"/>
<path id="_Контур_26" class="st17" d="M242.7,147.7c3.5,0.2,7.4-0.7,11.3-0.9c0.9,0,0.7-0.4,0.3-0.9c-3.6-3.5-7-7.3-11.2-10
	c-2.3-1.5-4.9-1.6-7.5-1.9c-0.9-0.1-1,0.3-0.6,1.1c0.6,1.3,1.2,2.5,1.8,3.8c1,2.3,1.5,4.7,1.5,7.2c0,1.2,0.3,1.8,1.6,1.6
	C240.6,147.7,241.7,147.7,242.7,147.7z"/>
<path id="_Контур_27" class="st17" d="M258.3,148.8c0.6,0.8,1,1.8,1.2,2.7c1.1,2.6,1.9,5.2,2.4,8c0.2,1.2,0.5,1.8,2,1.3
	c2.4-0.8,4.9-1.2,7.3-1.8c0.6-0.1,0.8-0.2,0.5-0.9c-1.3-3.7-3.2-7.2-5.7-10.3c-0.3-0.5-1-0.8-1.6-0.5c-1.6,0.6-3.4,1-5.1,0.9
	C259,148.3,258.5,148.2,258.3,148.8z"/>
<path id="_Контур_28" class="st17" d="M219.8,134.8c-4.9,1.1-9.7,2.6-14.3,4.6c-1.4,0.8-2.7,1.6-4,2.6
	c-0.6,0.4-0.4,0.8,0.1,0.9c2.5,0.6,5.1,1.3,7.6,1.9c0.5,0.1,0.8-0.3,1.1-0.6c1.6-1.7,3.1-3.4,4.6-5.2
	C216.4,137.4,218.1,136,219.8,134.8z"/>
<path id="_Контур_29" class="st17" d="M263.5,144.9c-4.7-4.3-10.6-5.8-16.2-8.3c0,0.5,0.4,0.7,0.6,0.9
	c2.3,2.3,4.8,4.4,6.8,6.9c1.7,2,3.6,2.1,5.8,1.6C261.6,146,262.6,145.5,263.5,144.9z"/>
<path id="_Контур_30" class="st19" d="M227.3,151.2c-0.3,0.1-0.7-0.1-1.1,0.3c1.6,0.4,3.1,0.7,4.6,1.1
	c0.8,0.2,1.6,0.4,2.3,0.7c1.3,0.6,2.3,1.5,2.1,3.1c-0.2,0.5,0,1.1,0.5,1.4c-0.1-2,0.5-3.8,0.3-5.6c-0.1-1-0.9-0.8-1.6-0.7
	c-2.2,0.4-4.4,0.3-6.5-0.4L227.3,151.2z"/>
<path id="_Контур_31" class="st20" d="M252.1,149.4c-0.1,0.9,0.5,0.9,1.1,0.9c1.9-0.2,2.8,0.8,3.4,2.4c0.3,0.9,0.7,1.7,1,2.5
	c0.1,0.3,0.3,0.6,0.6,0.4s0.1-0.4,0.1-0.6c-0.2-0.8-0.3-1.6-0.5-2.4c-0.2-0.5-0.4-1.1-0.7-1.6c-0.9-2-1-2-3.1-1.7
	C253.4,149.4,252.7,149.5,252.1,149.4z"/>
<path id="_Контур_32" class="st21" d="M229.7,133.7c0,0.2-0.1,0.5,0,0.5c1.9,0.6,2.7,2.3,3.9,3.7c0.3,0.4,0.4,1,1.1,0.7
	c-0.5-1.2-0.9-2.3-1.4-3.5C232.5,133.5,231,133.8,229.7,133.7z"/>
<path id="_Контур_33" class="st22" d="M248.3,87.8c0.1,18.6,15.2,33.6,33.8,33.5c18.6-0.1,33.6-15.2,33.5-33.8
	C315.5,69,300.4,54,281.9,54C263.3,54.1,248.2,69.2,248.3,87.8z"/>
<path id="_Контур_34" class="st23" d="M282.9,55.7c-17.2-0.3-31.1,14.1-31.1,30.9c-0.2,17.1,13.5,31.2,30.7,31.3
	c0.2,0,0.4,0,0.5,0c17.6-0.2,31.1-13.7,31-31.6c-0.1-16.9-13.8-30.6-30.8-30.6C283.1,55.7,283,55.7,282.9,55.7z"/>
<path id="_Контур_35" class="st24" d="M299.8,69.9c0-2.6-2.1-4.8-4.7-4.8s-4.8,2.1-4.8,4.7c0,2.6,2.1,4.8,4.7,4.8
	c0,0,0.1,0,0.1,0C297.7,74.6,299.8,72.5,299.8,69.9z"/>
<path id="_Контур_36" class="st25" d="M295.7,67.1c0,0.8,0.4,1.2,1.1,1.2c0.6,0,1-0.4,1.1-0.9c0-0.1,0-0.2,0-0.2
	c0-0.6-0.4-1-1-1C296.3,66.1,295.8,66.6,295.7,67.1z"/>
<polygon id="_Контур_37" points="480,0 500.2,4.2 495.5,23.9 474.6,23.2 "/>
<polygon id="_Контур_38" points="515.2,4.9 535.9,9.3 531.8,25.4 510.3,24.6 "/>
<g>
	<path d="M142.5,216.1l2-0.4l-0.1,5.1l0.3,3.5v3.8v3.5v3.2l-0.3,3.5l-0.6,3.5l0.3,3.2l-0.3,3.5v3.8v3.2l2.9,1.6l6.3,0.5l2.9-0.2
		v-4.4l-0.3-3.2v-3.5v-3.2v-3.8v-3.2v-3.2l-0.3-3.2v-3.5v-3.2v-3.5l1.9-2.6l1.9,2.6l-0.6,3.2l-0.3,3.2v3.2v3.5v3.2v3.5v3.5v3.2v3.2
		v3.8l-0.3,3.5l3.2-0.3l3.2,0.6v3.2v3.2l0.3,3.2l0.3,3.2l0.3,3.2l-1.5,1.4l-2.6-0.4l0.6-3.5v-3.2v-3.5l-1.3-3.2h-3.2h-3.2l-6.5,0.3
		l-3.3,0.1l-3-1.1v-3.2v-3.5v-3.5v-3.2v-3.2l0.6-3.5l0.3-4.5v-3.2v-3.5v-3.2l-0.6-4.2V217L142.5,216.1z"/>
	<path d="M175.5,242.3l-0.2,4.6l0.3,3.4l0.6,4l2.8,2.6h3.4l2.6-0.4l2.1-2.2l2.2,1l-1.8,3.1l-3.1,1.6H181l-3.4-0.3l-2.6-2.5l-0.6-3.4
		l-0.6-3.4l-0.6-4.1v-3.8v-3.8v-3.4v-4.1l0.3-3.8l0.3-3.4l1-3.4l2.8-2.2l3.4-1l3.4,0.3l2.8,2.8l1.2,3.4v3.4v3.8l-0.6,3.8l-0.6,3.4
		l-2.5,2.5l-3.2,1.6h-3.4L175.5,242.3z M175.6,239.7h3.4l3.4-1.3l2.2-2.8l0.6-3.4l0.3-4.1v-3.8l-1.2-3.4L181,220l-3.3,1l-1,2.8
		l-1,2.8l-0.4,4.1v4L175.6,239.7z"/>
	<path d="M199,215.3l1,2.6l0.7,3.5v3.2l-0.2,4.5l0.2,3.5l2.6,0.3l2.8,0.1l2.6-1l-0.5-3.4v-3.2l0.1-4.2l-0.5-3.4l2.2-0.6l0.3,3v3.2
		l0.3,3.8l0.3,3.5l0.3,3.2l0.3,3.8l0.3,3.5v3.5v3.2v4.2l0.3,3.2v3.2l-1.3,3.2l-1.4-0.6l0.3-3.1v-3.2v-3.2v-3.2l-0.3-3.2l-0.2-3.7
		l-0.3-3.2l-0.3-3.2l-4.5,0.9l-3.3-0.7l-0.4,3.8v3.5v3.2v3.2v3.5v3.2v3.8l-0.4,2.3l-2.1-0.1l0.6-5.8v-3.2v-4.2v-3.8V241l-0.3-4.2
		l-0.3-3.8l0.1-3.1l-0.2-3.1l-0.3-3.8v-3.5l-0.3-3.5L199,215.3z"/>
	<path d="M220.3,216.5l3.6,0.2l3.8,0.9h3.2h3.2l7.5,0.2v4.2l-3.9-1.4l-4.6-0.6l-0.6,5l0.3,3.2v3.2l0.2,3.2l-0.2,3.5l-0.3,3.2
		l0.3,3.8l-0.3,3.2v3.8v3.2l-0.4,4.9l-1.8,0.9l-1.9-1.3l1-5.1v-3.2l0.3-3.2v-3.5l0.2-3.2l0.3-3.8l0.2-3.2l-0.2-3.2v-3.8v-3.2
		l-0.2-3.7l-3.2-1.1h-3.5l-2.6,1.9L220.3,216.5z"/>
	<path d="M250.3,288.4v-3.5v-3.2v-3.5v-3.5v-3.8v-3.5l0.3-3.8l0.3-3.5l0.3-3.2v-3.2v-4.2v-3.8l-0.6-4.2v-3.5l-0.3-3.2v-4.2v-3.8
		v-3.2v-3.2l-0.6-3.2l1-0.9l2,1.8l4.2,1.4l3.2,0.3l2.5,1.1l0.8,2.2l0.6,3.2l0.6,3.2l0.3,3.2l0.3,3.2l0.3,3.2v3.2l-0.3,2.9l-0.3,2.4
		l-1,3l-2.6,2.2l-3,1.8l-4.7,1.5l-0.1,4.2l-0.4,3.4l-0.2,4.2l0.2,3.1l-0.3,3.9l-0.3,3.2v3.2v3.2l0.6,3.2L250.3,288.4z M257.8,251.9
		l2.9-1.9l1.9-2.6l0.3-3.2V241v-3.2v-3.2v-3.2l-0.3-3.2l-0.3-3.2l-1.6-2.9l-2.9-1.6l-5.1-0.5l0.3,3.4l0.3,3.2v3.2v3.5l0.3,3.2v3.2
		v3.2v3.5v3.5v3.5L257.8,251.9z"/>
	<path d="M311.5,227.8v-3.5l-0.4-4.1l-0.4-3.3l-0.5-4.5l-0.8-3.6l-1.2-2.7l-1.2-3.8l-3.5-3.3l-4.3-0.6l-4.5,1.3l-2.7,3l-1.9-4.2
		l1.8-2l3.3-1.8l4.1-0.2l3.4,0.5l3.8,1.4l2.6,2.3l1.7,3.7l0.8,3.4l1,2.9l0.7,4.2l0.9,4.3l0.2,4.4l0.2,4.4l0.2,3.4l-0.2,4l0.2,4.1
		l-0.4,4.4L314,246l-0.7,3.4l-0.7,3.5l-1.8,4.1l-2,3l-2.4,2l-3.8,1.2l-2.8-0.2l-3.2-1.4l-2.1-2.3l-2.5-3.7l-1.4-3.4l-0.5-3.4
		l-0.5-3.4l-0.2-3.4l0.2-3.8l0.4-3.8l0.7-3.4l1.1-3.8l1.7-3.2l3-2.2l3.2-0.9l3.4,0.9l3.2,1.4L311.5,227.8z M311.4,231l-3.4-2.6
		l-2.4-1.8l-3.2-1.8l-3-0.7l-3,1.5l-1.8,2.5l-0.6,3.5l-0.2,3.4l-0.2,3.4l-0.2,3.4l-0.1,3.5l0.2,3.4l1,3.4l1.3,2.7l1,2.4l1.8,1.3l3,1
		l2.7,0.5l2.6-2l1.5-3l1.1-3.5l1-4.2l0.4-3.8l0.6-3.6l0.1-3.6L311.4,231z"/>
	<path d="M325.3,242.3l-0.2,4.6l0.3,3.4l0.6,4l2.8,2.6h3.4l2.6-0.4l2.1-2.2l2.2,1l-1.8,3.1l-3.1,1.6h-3.4l-3.4-0.3l-2.6-2.5
		l-0.6-3.4l-0.6-3.4l-0.6-4.1v-3.8v-3.8v-3.4v-4.1l0.3-3.8l0.3-3.4l1-3.4l2.8-2.2l3.4-1l3.4,0.3l2.8,2.8l1.2,3.4v3.4v3.8l-0.6,3.8
		l-0.6,3.4l-2.5,2.5l-3.2,1.6h-3.4L325.3,242.3z M325.4,239.7h3.4l3.4-1.3l2.2-2.8l0.6-3.4l0.3-4.1v-3.8l-1.2-3.4l-3.4-0.9l-3.3,1
		l-1,2.8l-1,2.8l-0.4,4.1v4L325.4,239.7z"/>
	<path d="M347.1,216.5l3.6,0.2l3.8,0.9h3.2h3.2l7.5,0.2v4.2l-3.9-1.4l-4.6-0.6l-0.6,5l0.3,3.2v3.2l0.2,3.2l-0.2,3.5l-0.3,3.2
		l0.3,3.8l-0.3,3.2v3.8v3.2l-0.4,4.9l-1.8,0.9l-1.9-1.3l1-5.1v-3.2l0.3-3.2v-3.5l0.2-3.2l0.3-3.8l0.2-3.2l-0.2-3.2v-3.8v-3.2
		l-0.2-3.7l-3.2-1.1H350l-2.6,1.9L347.1,216.5z"/>
	<path d="M396.8,225.8l-1,3.4l-3.3-0.7l0.6-3l-1.8-3l-1.8-1.1l-3.3-1.1l-3.2,0.3l-2.4,1.2l-1,2.4l-0.8,3.1l-0.3,3.7l0.3,3.8v3.2v3.2
		l0.3,3.5l0.3,3.8l0.9,5.2l2.4,2.7l2.9,1.6h3.2l3.2-0.6l1.7-1.4l2,1l-1.8,2.6l-3.2,1l-3.2,0.3l-3.7-0.2l-3-1.4l-1.8-2.2l-1.4-2.9
		l-0.6-3.2l-0.3-3.5l-0.3-3.5v-3.5v-3.2V234v-3.2l0.3-3.2v-3.2l0.6-3.8l2.6-2.6l3.2-0.3h3.5l3.5,0.1l3.8,2.2l1.9,2.9L396.8,225.8z"
		/>
	<path d="M407.4,213.5l1.7,3.5v3.2v3.2v3.2l-0.3,3.2v3.2l-0.3,3.8l3.1-5.7l1.8-1.4l3-2.7l1.6-2.9l1.9-2.6l2.9-1.6l2.5,4.2l-3.5,0.9
		l-3.8,3.6l-2.6,2.2l-2.2,2.9l-2,3.2l2.8,2.1l2.1,3l1.3,3.2l1.6,2.9l1.4,3.7l0.9,3l0.6,3.2l2.1,2.7l-2.8,2.1l-2-3l-0.2-4.1l-1.5-2.8
		l-1.3-3.2l-1-3.2l-1.6-3.5l-1.9-2.2l-2.9-1l-0.9,3l-0.2,3.6l-0.6,3l0.3,3.2l0.3,3.2l0.3,5.4l-3.2-0.2v-3.5v-3.2v-3.2v-3.2l0.3-3.5
		l0.3-3.2l0.3-3.8l0.3-3.2v-3.2v-3.8v-3.2v-3.5l-1.3-5.6L407.4,213.5z"/>
	<path d="M441.9,218l3.2,0.3l2.6,1.9l1.9,2.6l1.6,3.2l0.6,3.3v3.1l0.3,3.5v3.2v3.2v3.5v3.2l-0.6,4.2l-1.6,4.2l-2.9,1.6l-3.5,1.3
		l-3.2,0.3l-3.5-1.6l-1.6-3.2l-1-3.2l-0.6-3.8l-0.3-3.5v-3.5v-3.2v-3.5v-3.5v-3.2v-3.8l1-3.5l2.6-2.2L441.9,218z M437.3,220.9
		l-1.5,3.1l-0.6,3.5l-0.3,3.2v3.2v3.2v3.2l0.3,3.5l0.6,3.2l0.6,4.7l1.4,2.8l2.4,2.4l2.6,1.3l3.2-1.3l1.9-2.6l0.6-3.2l0.3-3.5v-3.5
		V241v-3.8V234v-3.2v-3.2l-1.8-4.5l-2.7-1.8l-3.1-1.1L437.3,220.9z"/>
	<path d="M460.8,236.7l-0.7-3.4l0.3-3.4l1.3-3.4l2.5-3.4l3.4-1.2l5.8-0.2l3.6,2.1l1.3,3.4l1.2,3.8v3.9l-1.4,5.4l-1.4,3.5l-2.2,3.8
		l-3.5,3l-2.2,3.3l-0.6,3.4l2.5,2.6l4.7-0.5l3-2.5l1.9,1.4l-2.5,2.6l-3,1.6l-3.3,0.6l-4.1-1l-2.6-2.5l-0.8-3.8l1.4-3.7l3.5-4.2l3-3
		l2-3.9l1.3-3.4l0.6-5l-1.7-5.4l-4.2-2.1l-3.8,1.8l-2.5,3.1l-0.5,4.4l1.6,2.4l-2.6,2.6L460.8,236.7z"/>
	<path d="M497.1,218l3.2,0.3l2.6,1.9l1.9,2.6l1.6,3.2l0.6,3.3v3.1l0.3,3.5v3.2v3.2v3.5v3.2l-0.6,4.2l-1.6,4.2l-2.9,1.6l-3.5,1.3
		l-3.2,0.3l-3.5-1.6l-1.6-3.2l-1-3.2l-0.6-3.8l-0.3-3.5v-3.5v-3.2v-3.5v-3.5v-3.2v-3.8l1-3.5l2.6-2.2L497.1,218z M492.5,220.9
		l-1.5,3.1l-0.6,3.5l-0.3,3.2v3.2v3.2v3.2l0.3,3.5l0.6,3.2l0.6,4.7l1.4,2.8l2.4,2.4l2.6,1.3l3.2-1.3l1.9-2.6l0.6-3.2l0.3-3.5v-3.5
		V241v-3.8V234v-3.2v-3.2l-1.8-4.5l-2.7-1.8l-3.1-1.1L492.5,220.9z"/>
	<path d="M531.9,288.4v-3.5v-3.2v-3.5v-3.5v-3.8v-3.5l0.3-3.8l0.3-3.5l0.3-3.2v-3.2v-4.2v-3.8l-0.6-4.2v-3.5l-0.3-3.2v-4.2v-3.8
		v-3.2v-3.2l-0.6-3.2l1-0.9l2,1.8l4.2,1.4l3.2,0.3l2.5,1.1l0.8,2.2l0.6,3.2l0.6,3.2l0.3,3.2l0.3,3.2l0.3,3.2v3.2l-0.3,2.9l-0.3,2.4
		l-1,3l-2.6,2.2l-3,1.8l-4.7,1.5l-0.1,4.2l-0.4,3.4l-0.2,4.2l0.2,3.1l-0.3,3.9l-0.3,3.2v3.2v3.2l0.6,3.2L531.9,288.4z M539.5,251.9
		l2.9-1.9l1.9-2.6l0.3-3.2V241v-3.2v-3.2v-3.2l-0.3-3.2l-0.3-3.2l-1.6-2.9l-2.9-1.6l-5.1-0.5l0.3,3.4l0.3,3.2v3.2v3.5l0.3,3.2v3.2
		v3.2v3.5v3.5v3.5L539.5,251.9z"/>
	<path d="M556.3,224.3l1-3.1l1.6-2.9l2.9-1.6l3.8-0.3l3.2,0.3l2.6,1.9l1.9,2.6l1.3,3.2v3.5v3.8v3.2v3.5v3.8v3.5v3.2l-0.3,3.2v3.2
		l1,2.8l1.4,3.5l-3,0.5l-1.4-4.2l-0.9-3.3l-1.9,2.9l-1.9,2.9l-3.2,1h-3.2l-2.3-1l-2.2-2.9l-0.7-3.4l-0.7-3.4l0.3-3.7l0.7-3.3
		l1.8-2.8l2.9-2.6l3-0.5l3.6-0.3l3.7-0.8l0.5-2l0.4-2.4v-3.2l-0.3-3.2l-0.5-3.6l-1.6-2.4l-2.6-1.4l-5,0.6l-1.9,3.4l-0.7,2.2
		L556.3,224.3z M566.9,240.5l-3.3,0.7l-2.4,1.4l-1.9,2.6l-0.6,3.2v3.5l0.6,3.2l1.9,2.6l3.1,0.4l3.6-1.7l1.6-2.9l1.7-3.5l0.4-3.8
		v-3.1l-0.2-3L566.9,240.5z"/>
	<path d="M587.9,223.5l1.9-4.1l3.8-2.1l4.3-0.2l3.5,1.1l1.4,3.4l0.7,3.5v3.7l-1.8,3.8l-2.3,2.8l2.2,3.3l0.8,3.9l0.7,3.8v3.8v3.8
		l-1.4,3.8l-2.2,2.3L596,261l-4.5-0.3l-4.2-1.1l-2.6-2.1l1-1.8l2.4,0.8l3.5,1.1l4.3-0.3l3-1.4l1.8-3.5v-3.8v-4.2l-1.4-4.5l-2.8-3.6
		l-3.8-0.3l0.1-1.7l3.8-0.4l2.7-2.6l1.7-3.4l0.3-4.1l-2.4-3.1l-3.8-0.3l-3.4,1.7l-1,3.1L587.9,223.5z"/>
	<path d="M627.5,245.5l4.3,1l1.5,3.4v3.4l-0.9,3.8l-2.6,2.8l-3.7,1.9h-4.7l-3.8-0.6l-3.1-1.6l-2.2-2.8l-1-4.1v-4l0.3-3.8l0.6-4.1
		l0.6-5l0.9-3.8l1-3.7l2.2-3.4l2.8-2.6l3.8-1.5l3.8-1.3l3.4-0.3l3.8,0.3l2.7,2.8l0.7,3.1v3.4l-0.6,3.4l-1,3.4l-2.2,3.4l-2.2,2.6
		l-2.5,2L627.5,245.5z M614.3,247.7l4.1-0.6l5.5-2l3.8-2.6l2.5-2.5l2.2-2.8l0.6-3.4l1-3.4l0.2-3.4l-1.5-3.1l-3.4-1h-4.1l-2.5,1.2
		l-2.6,2.2L618,229l-0.9,1.9l-0.8,3.6l-0.6,3l-1.2,5.4L614.3,247.7z M614.3,249.6v2l0.3,3.4l2.2,2.8l3.1,1.5l3.4,0.6l3.2-0.9l2.9-3
		l0.5-3.4l-0.6-3.4l-3.1-1.5l-3.5-0.4l-5.1,1.6L614.3,249.6z"/>
	<path d="M650.3,217.7l0.1,2.7l0.2,4.2v3.4v3.4v3.8l-0.3,3.4v3.4v3.8v4.1l0.6,4l1.4,4.8l3.6,1.3l2.3-1.3l3.9-3.1l1.4-4.1l0.8-4.5
		l0.2-3.4v-3.4v-3.4v-3.4V230v-3.4v-3.8l3.1-1.9v3.8v3.8v3.4v4.1v4.2l-0.5,4.2l-0.1,3.6l0.7,4.2l1.1,3.2l1.2,3.4l1,3.4l-3.2,1
		l-0.7-4.4l-0.6-3.5l-1-5.4l-0.4,5.4l-1.6,4.1l-2.8,2.2l-3.1,1.9l-3.4,0.3l-3.4-0.3l-2.2-2.9l-1-2.5v-3.4v-3.8v-3.4V244l0.3-3.4
		l0.3-3.7v-3.8v-3.8l-0.3-3.4l-0.6-3.8l-1.4-3L650.3,217.7z"/>
	<path d="M679.2,216.5l3.6,0.2l3.8,0.9h3.2h3.2l7.5,0.2v4.2l-3.9-1.4l-4.6-0.6l-0.6,5l0.3,3.2v3.2l0.2,3.2l-0.2,3.5l-0.3,3.2
		l0.3,3.8l-0.3,3.2v3.8v3.2l-0.4,4.9l-1.8,0.9l-1.9-1.3l1-5.1v-3.2l0.3-3.2v-3.5l0.2-3.2l0.3-3.8l0.2-3.2l-0.2-3.2v-3.8v-3.2
		l-0.2-3.7l-3.2-1.1h-3.5l-2.6,1.9L679.2,216.5z"/>
	<path d="M712.7,217.7l0.1,2.7l0.2,4.2v3.4v3.4v3.8l-0.3,3.4v3.4v3.8v4.1l0.6,4l1.4,4.8l3.6,1.3l2.3-1.3l3.9-3.1l1.4-4.1l0.8-4.5
		l0.2-3.4v-3.4v-3.4v-3.4V230v-3.4v-3.8l3.1-1.9v3.8v3.8v3.4v4.1v4.2l-0.5,4.2l-0.1,3.6l0.7,4.2l1.1,3.2l1.2,3.4l1,3.4l-3.2,1
		l-0.7-4.4l-0.6-3.5l-1-5.4l-0.4,5.4l-1.6,4.1l-2.8,2.2l-3.1,1.9l-3.4,0.3l-3.4-0.3l-2.2-2.9l-1-2.5v-3.4v-3.8v-3.4V244l0.3-3.4
		l0.3-3.7v-3.8v-3.8l-0.3-3.4l-0.6-3.8l-1.4-3L712.7,217.7z"/>
	<path d="M762.4,218.1l-0.3,4.4l-0.6,3.2l-0.3,3.2v3.5v3.2l-0.3,3.8v3.2v3.5v3.2v3.5l-0.3,3.5v3.2l-2.9,1.6V258v-3.5v-3.2v-3.2
		l0.4-3.8l-2.6-0.9l-3.7,4.7l-1.4,3.6l-0.4,3.8l-1.8,3.5l-2.2,2.1l-1.8,1.6l-2.6-1.9l2.6-1.9l1.8-2.1l1.1-3l1.3-3.2l0.6-3.2l1.9-2.6
		l2.6-2.9l-2.6-2.6l-1.9-2.6l-1.3-3.2v-3.5l0.3-3.2l0.3-3.2l0.6-3.2l1.9-2.6l3.5-0.6h3.2h3.5L762.4,218.1z M758.3,219.3l-2-0.1
		l-3.2,0.6l-2.2,2.2l-0.4,2.9v3.2v3.2l1,3.2l1.4,2.8l2.7,2.6l3.2,1.3l0.3-3.2v-3.2v-3.2l0.3-3.2l0.3-3.2l0.3-3.2l0.4-2L758.3,219.3z
		"/>
</g>
</svg>
